%TF.GenerationSoftware,KiCad,Pcbnew,5.1.8*%
%TF.CreationDate,2020-11-14T22:04:08+01:00*%
%TF.ProjectId,M037,4d303337-2e6b-4696-9361-645f70636258,rev?*%
%TF.SameCoordinates,Original*%
%TF.FileFunction,Plated,1,2,PTH,Drill*%
%TF.FilePolarity,Positive*%
%FSLAX46Y46*%
G04 Gerber Fmt 4.6, Leading zero omitted, Abs format (unit mm)*
G04 Created by KiCad (PCBNEW 5.1.8) date 2020-11-14 22:04:08*
%MOMM*%
%LPD*%
G01*
G04 APERTURE LIST*
%TA.AperFunction,ViaDrill*%
%ADD10C,0.400000*%
%TD*%
%TA.AperFunction,ViaDrill*%
%ADD11C,0.700000*%
%TD*%
%TA.AperFunction,ComponentDrill*%
%ADD12C,0.800000*%
%TD*%
%TA.AperFunction,ComponentDrill*%
%ADD13C,0.900000*%
%TD*%
%TA.AperFunction,ComponentDrill*%
%ADD14C,1.000000*%
%TD*%
G04 APERTURE END LIST*
D10*
X77250000Y-71000000D03*
X77500000Y-77500000D03*
X77500000Y-97500000D03*
X77500000Y-141500000D03*
X80000000Y-141500000D03*
X84500000Y-113000000D03*
X85000000Y-97500000D03*
X89750000Y-97500000D03*
X90000000Y-62250000D03*
X90000000Y-82500000D03*
X90000000Y-88750000D03*
X90250000Y-117750000D03*
X92500000Y-33500020D03*
X92500000Y-35500000D03*
X92750000Y-120000000D03*
X94750000Y-110500000D03*
X95500000Y-119000000D03*
X97500000Y-52250000D03*
X97500000Y-60000000D03*
X99000000Y-90000000D03*
X99000000Y-92500000D03*
X99000000Y-99000000D03*
X99750000Y-33250000D03*
X100000000Y-96500000D03*
X102500000Y-62000000D03*
X102500000Y-101500000D03*
X102500000Y-104000000D03*
X104750000Y-112999991D03*
X105000000Y-33000000D03*
X105500000Y-134000000D03*
X107500000Y-77500000D03*
X107500000Y-131749998D03*
X107750000Y-138000000D03*
X108000000Y-127500000D03*
X109000000Y-119000000D03*
X110000000Y-44500000D03*
X110500000Y-55000000D03*
X111250000Y-117750000D03*
X112250002Y-47000002D03*
X113000000Y-120000000D03*
X113000000Y-133000000D03*
X113000000Y-135500000D03*
X113000000Y-140500000D03*
X113500000Y-33500000D03*
X115250000Y-110500000D03*
X115500000Y-105000000D03*
X115500000Y-119000000D03*
X116500000Y-102500000D03*
X117750000Y-33500000D03*
X117750000Y-72500000D03*
X117800000Y-100300000D03*
X119000000Y-75000000D03*
X120000000Y-57500000D03*
X120000000Y-95000000D03*
X120499994Y-33500000D03*
X120500000Y-126500000D03*
X121500000Y-110500000D03*
X123000000Y-33500000D03*
X125500000Y-33500000D03*
X125500000Y-113000000D03*
X128000000Y-70000000D03*
X128000000Y-77500000D03*
X130500000Y-33500000D03*
X130500000Y-117500000D03*
X130500000Y-135500000D03*
X133000000Y-33500000D03*
X133000000Y-140500000D03*
X133250000Y-127750000D03*
X135500000Y-33500000D03*
X135500000Y-44500000D03*
X135500000Y-62500000D03*
X135500000Y-110500000D03*
X135500000Y-119000000D03*
X138000000Y-33500000D03*
X138000000Y-133000000D03*
X138000000Y-135500000D03*
X138000000Y-140500000D03*
X139500000Y-91000000D03*
X140500000Y-31000000D03*
X140500000Y-57500000D03*
X140500000Y-60000000D03*
X140500000Y-65000000D03*
X140500000Y-126500000D03*
X140500000Y-135500000D03*
X140512660Y-36487340D03*
X141000000Y-140500000D03*
X141500000Y-38500000D03*
X141500000Y-46500000D03*
X142774990Y-54982102D03*
X143000000Y-33500000D03*
X143000000Y-39500000D03*
X143042646Y-57462214D03*
X144500000Y-72500000D03*
X145500000Y-33500000D03*
X146000000Y-113000000D03*
X146000000Y-135500000D03*
X146000000Y-140500000D03*
X147000000Y-70000000D03*
X148000000Y-33500000D03*
X148000000Y-129000000D03*
X148500000Y-55000000D03*
X148500000Y-60000000D03*
X148500000Y-77500000D03*
X150500000Y-33500000D03*
X150500000Y-65000000D03*
X152000000Y-117500000D03*
X153000000Y-33500000D03*
X153250000Y-42250000D03*
X153750000Y-123000000D03*
X155500000Y-33500000D03*
X156000000Y-119000000D03*
X156000000Y-124000000D03*
X156500000Y-110000000D03*
X157000000Y-86500000D03*
X157000000Y-99000000D03*
X157500000Y-96500000D03*
X158500000Y-89000000D03*
X159500000Y-80000000D03*
X160000000Y-83500000D03*
X162000000Y-85000000D03*
X162250000Y-129250000D03*
X163500000Y-82500000D03*
X163500000Y-90000000D03*
X166000000Y-113000000D03*
X171000000Y-86500000D03*
X173500000Y-113000000D03*
X173500000Y-138000000D03*
X176500000Y-119000000D03*
X176500000Y-132000000D03*
X176500000Y-134500000D03*
X176500000Y-139500000D03*
X177250000Y-80250000D03*
X177500000Y-128000000D03*
X178000000Y-101500000D03*
X179000000Y-58750000D03*
X179000000Y-133000000D03*
X181249999Y-61250001D03*
X181500000Y-65000000D03*
D11*
X161100000Y-32500000D03*
X161100000Y-35500000D03*
D12*
%TO.C,RB01*%
X87500000Y-77500000D03*
X87500000Y-80040000D03*
%TO.C,RB08*%
X87500000Y-92500000D03*
X87500000Y-95040000D03*
%TO.C,R4*%
X163500000Y-52340000D03*
X163500000Y-62500000D03*
%TO.C,C3*%
X125500000Y-75000000D03*
X130500000Y-75000000D03*
X133000000Y-75000000D03*
%TO.C,D5*%
X115380000Y-44640000D03*
X115380000Y-47180000D03*
X115380000Y-49720000D03*
X115380000Y-52260000D03*
X115380000Y-54800000D03*
X115380000Y-57340000D03*
X115380000Y-59880000D03*
X115380000Y-62420000D03*
X115380000Y-64960000D03*
X115380000Y-67500000D03*
X123000000Y-44640000D03*
X123000000Y-47180000D03*
X123000000Y-49720000D03*
X123000000Y-52260000D03*
X123000000Y-54800000D03*
X123000000Y-57340000D03*
X123000000Y-59880000D03*
X123000000Y-62420000D03*
X123000000Y-64960000D03*
X123000000Y-67500000D03*
%TO.C,D8*%
X74380000Y-97760000D03*
X74380000Y-100300000D03*
X74380000Y-102840000D03*
X74380000Y-105380000D03*
X74380000Y-107920000D03*
X74380000Y-110460000D03*
X74380000Y-113000000D03*
X82000000Y-97760000D03*
X82000000Y-100300000D03*
X82000000Y-102840000D03*
X82000000Y-105380000D03*
X82000000Y-107920000D03*
X82000000Y-110460000D03*
X82000000Y-113000000D03*
%TO.C,D1*%
X102880000Y-125260000D03*
X102880000Y-127800000D03*
X102880000Y-130340000D03*
X102880000Y-132880000D03*
X102880000Y-135420000D03*
X102880000Y-137960000D03*
X102880000Y-140500000D03*
X110500000Y-125260000D03*
X110500000Y-127800000D03*
X110500000Y-130340000D03*
X110500000Y-132880000D03*
X110500000Y-135420000D03*
X110500000Y-137960000D03*
X110500000Y-140500000D03*
%TO.C,R1*%
X161000000Y-49840000D03*
X161000000Y-60000000D03*
%TO.C,D12*%
X87380000Y-49760000D03*
X87380000Y-52300000D03*
X87380000Y-54840000D03*
X87380000Y-57380000D03*
X87380000Y-59920000D03*
X87380000Y-62460000D03*
X87380000Y-65000000D03*
X95000000Y-49760000D03*
X95000000Y-52300000D03*
X95000000Y-54840000D03*
X95000000Y-57380000D03*
X95000000Y-59920000D03*
X95000000Y-62460000D03*
X95000000Y-65000000D03*
%TO.C,R3*%
X166000000Y-49840000D03*
X166000000Y-60000000D03*
%TO.C,R5*%
X171000000Y-49840000D03*
X171000000Y-60000000D03*
%TO.C,C6*%
X84750000Y-57500000D03*
X84750000Y-60000000D03*
X84750000Y-65000000D03*
%TO.C,D7*%
X130380000Y-49760000D03*
X130380000Y-52300000D03*
X130380000Y-54840000D03*
X130380000Y-57380000D03*
X130380000Y-59920000D03*
X130380000Y-62460000D03*
X130380000Y-65000000D03*
X138000000Y-49760000D03*
X138000000Y-52300000D03*
X138000000Y-54840000D03*
X138000000Y-57380000D03*
X138000000Y-59920000D03*
X138000000Y-62460000D03*
X138000000Y-65000000D03*
%TO.C,R8*%
X173500000Y-52340000D03*
X173500000Y-62500000D03*
%TO.C,D16*%
X92260000Y-79980000D03*
X92260000Y-82520000D03*
X92260000Y-85060000D03*
X92260000Y-87600000D03*
X92260000Y-90140000D03*
X92260000Y-92680000D03*
X92260000Y-95220000D03*
X92260000Y-97760000D03*
X92260000Y-100300000D03*
X92260000Y-102840000D03*
X92260000Y-105380000D03*
X92260000Y-107920000D03*
X92260000Y-110460000D03*
X92260000Y-113000000D03*
X107500000Y-79980000D03*
X107500000Y-82520000D03*
X107500000Y-85060000D03*
X107500000Y-87600000D03*
X107500000Y-90140000D03*
X107500000Y-92680000D03*
X107500000Y-95220000D03*
X107500000Y-97760000D03*
X107500000Y-100300000D03*
X107500000Y-102840000D03*
X107500000Y-105380000D03*
X107500000Y-107920000D03*
X107500000Y-110460000D03*
X107500000Y-113000000D03*
%TO.C,C10*%
X85000000Y-85000000D03*
X85000000Y-87500000D03*
X85000000Y-92500000D03*
%TO.C,D15*%
X143380000Y-125260000D03*
X143380000Y-127800000D03*
X143380000Y-130340000D03*
X143380000Y-132880000D03*
X143380000Y-135420000D03*
X143380000Y-137960000D03*
X143380000Y-140500000D03*
X151000000Y-125260000D03*
X151000000Y-127800000D03*
X151000000Y-130340000D03*
X151000000Y-132880000D03*
X151000000Y-135420000D03*
X151000000Y-137960000D03*
X151000000Y-140500000D03*
%TO.C,R2*%
X158500000Y-52340000D03*
X158500000Y-62500000D03*
%TO.C,C8*%
X125750000Y-60000000D03*
X125750000Y-62500000D03*
X125750000Y-67500000D03*
%TO.C,RB04*%
X176000000Y-107920000D03*
X176000000Y-110460000D03*
%TO.C,D6*%
X173880000Y-80140000D03*
X173880000Y-82680000D03*
X173880000Y-85220000D03*
X173880000Y-87760000D03*
X173880000Y-90300000D03*
X173880000Y-92840000D03*
X173880000Y-95380000D03*
X173880000Y-97920000D03*
X173880000Y-100460000D03*
X173880000Y-103000000D03*
X181500000Y-80140000D03*
X181500000Y-82680000D03*
X181500000Y-85220000D03*
X181500000Y-87760000D03*
X181500000Y-90300000D03*
X181500000Y-92840000D03*
X181500000Y-95380000D03*
X181500000Y-97920000D03*
X181500000Y-100460000D03*
X181500000Y-103000000D03*
%TO.C,D18*%
X133260000Y-79980000D03*
X133260000Y-82520000D03*
X133260000Y-85060000D03*
X133260000Y-87600000D03*
X133260000Y-90140000D03*
X133260000Y-92680000D03*
X133260000Y-95220000D03*
X133260000Y-97760000D03*
X133260000Y-100300000D03*
X133260000Y-102840000D03*
X133260000Y-105380000D03*
X133260000Y-107920000D03*
X133260000Y-110460000D03*
X133260000Y-113000000D03*
X148500000Y-79980000D03*
X148500000Y-82520000D03*
X148500000Y-85060000D03*
X148500000Y-87600000D03*
X148500000Y-90140000D03*
X148500000Y-92680000D03*
X148500000Y-95220000D03*
X148500000Y-97760000D03*
X148500000Y-100300000D03*
X148500000Y-102840000D03*
X148500000Y-105380000D03*
X148500000Y-107920000D03*
X148500000Y-110460000D03*
X148500000Y-113000000D03*
%TO.C,R6*%
X168500000Y-52340000D03*
X168500000Y-62500000D03*
%TO.C,D11*%
X89630000Y-125260000D03*
X89630000Y-127800000D03*
X89630000Y-130340000D03*
X89630000Y-132880000D03*
X89630000Y-135420000D03*
X89630000Y-137960000D03*
X89630000Y-140500000D03*
X97250000Y-125260000D03*
X97250000Y-127800000D03*
X97250000Y-130340000D03*
X97250000Y-132880000D03*
X97250000Y-135420000D03*
X97250000Y-137960000D03*
X97250000Y-140500000D03*
%TO.C,D10*%
X74380000Y-77260000D03*
X74380000Y-79800000D03*
X74380000Y-82340000D03*
X74380000Y-84880000D03*
X74380000Y-87420000D03*
X74380000Y-89960000D03*
X74380000Y-92500000D03*
X82000000Y-77260000D03*
X82000000Y-79800000D03*
X82000000Y-82340000D03*
X82000000Y-84880000D03*
X82000000Y-87420000D03*
X82000000Y-89960000D03*
X82000000Y-92500000D03*
%TO.C,RB03*%
X176000000Y-110460000D03*
X176000000Y-113000000D03*
%TO.C,D17*%
X112760000Y-79980000D03*
X112760000Y-82520000D03*
X112760000Y-85060000D03*
X112760000Y-87600000D03*
X112760000Y-90140000D03*
X112760000Y-92680000D03*
X112760000Y-95220000D03*
X112760000Y-97760000D03*
X112760000Y-100300000D03*
X112760000Y-102840000D03*
X112760000Y-105380000D03*
X112760000Y-107920000D03*
X112760000Y-110460000D03*
X112760000Y-113000000D03*
X128000000Y-79980000D03*
X128000000Y-82520000D03*
X128000000Y-85060000D03*
X128000000Y-87600000D03*
X128000000Y-90140000D03*
X128000000Y-92680000D03*
X128000000Y-95220000D03*
X128000000Y-97760000D03*
X128000000Y-100300000D03*
X128000000Y-102840000D03*
X128000000Y-105380000D03*
X128000000Y-107920000D03*
X128000000Y-110460000D03*
X128000000Y-113000000D03*
%TO.C,C11*%
X100000000Y-133000000D03*
X100000000Y-135500000D03*
X100000000Y-140500000D03*
%TO.C,D9*%
X157630000Y-122720000D03*
X157630000Y-125260000D03*
X157630000Y-127800000D03*
X157630000Y-130340000D03*
X157630000Y-132880000D03*
X157630000Y-135420000D03*
X157630000Y-137960000D03*
X157630000Y-140500000D03*
X165250000Y-122720000D03*
X165250000Y-125260000D03*
X165250000Y-127800000D03*
X165250000Y-130340000D03*
X165250000Y-132880000D03*
X165250000Y-135420000D03*
X165250000Y-137960000D03*
X165250000Y-140500000D03*
%TO.C,C7*%
X110250000Y-60000000D03*
X110250000Y-62500000D03*
X110250000Y-67500000D03*
%TO.C,D14*%
X127880000Y-125260000D03*
X127880000Y-127800000D03*
X127880000Y-130340000D03*
X127880000Y-132880000D03*
X127880000Y-135420000D03*
X127880000Y-137960000D03*
X127880000Y-140500000D03*
X135500000Y-125260000D03*
X135500000Y-127800000D03*
X135500000Y-130340000D03*
X135500000Y-132880000D03*
X135500000Y-135420000D03*
X135500000Y-137960000D03*
X135500000Y-140500000D03*
%TO.C,C12*%
X125250000Y-133000000D03*
X125250000Y-135500000D03*
X125250000Y-140500000D03*
%TO.C,D13*%
X74380000Y-49760000D03*
X74380000Y-52300000D03*
X74380000Y-54840000D03*
X74380000Y-57380000D03*
X74380000Y-59920000D03*
X74380000Y-62460000D03*
X74380000Y-65000000D03*
X82000000Y-49760000D03*
X82000000Y-52300000D03*
X82000000Y-54840000D03*
X82000000Y-57380000D03*
X82000000Y-59920000D03*
X82000000Y-62460000D03*
X82000000Y-65000000D03*
%TO.C,D2*%
X145380000Y-49760000D03*
X145380000Y-52300000D03*
X145380000Y-54840000D03*
X145380000Y-57380000D03*
X145380000Y-59920000D03*
X145380000Y-62460000D03*
X145380000Y-65000000D03*
X153000000Y-49760000D03*
X153000000Y-52300000D03*
X153000000Y-54840000D03*
X153000000Y-57380000D03*
X153000000Y-59920000D03*
X153000000Y-62460000D03*
X153000000Y-65000000D03*
%TO.C,RB05*%
X181500000Y-107920000D03*
X181500000Y-110460000D03*
%TO.C,R9*%
X79500000Y-120340000D03*
X79500000Y-130500000D03*
%TO.C,D4*%
X99880000Y-44640000D03*
X99880000Y-47180000D03*
X99880000Y-49720000D03*
X99880000Y-52260000D03*
X99880000Y-54800000D03*
X99880000Y-57340000D03*
X99880000Y-59880000D03*
X99880000Y-62420000D03*
X99880000Y-64960000D03*
X99880000Y-67500000D03*
X107500000Y-44640000D03*
X107500000Y-47180000D03*
X107500000Y-49720000D03*
X107500000Y-52260000D03*
X107500000Y-54800000D03*
X107500000Y-57340000D03*
X107500000Y-59880000D03*
X107500000Y-62420000D03*
X107500000Y-64960000D03*
X107500000Y-67500000D03*
%TO.C,RB07*%
X87500000Y-84960000D03*
X87500000Y-87500000D03*
%TO.C,RB02*%
X181500000Y-110460000D03*
X181500000Y-113000000D03*
%TO.C,C2*%
X105000000Y-75000000D03*
X110000000Y-75000000D03*
X112500000Y-75000000D03*
%TO.C,RB06*%
X87500000Y-99960000D03*
X87500000Y-102500000D03*
%TO.C,C4*%
X146000000Y-75000000D03*
X151000000Y-75000000D03*
X153500000Y-75000000D03*
%TO.C,C9*%
X155750000Y-57500000D03*
X155750000Y-60000000D03*
X155750000Y-65000000D03*
%TO.C,C13*%
X153750000Y-133000000D03*
X153750000Y-135500000D03*
X153750000Y-140500000D03*
%TO.C,D19*%
X153760000Y-79980000D03*
X153760000Y-82520000D03*
X153760000Y-85060000D03*
X153760000Y-87600000D03*
X153760000Y-90140000D03*
X153760000Y-92680000D03*
X153760000Y-95220000D03*
X153760000Y-97760000D03*
X153760000Y-100300000D03*
X153760000Y-102840000D03*
X153760000Y-105380000D03*
X153760000Y-107920000D03*
X153760000Y-110460000D03*
X153760000Y-113000000D03*
X169000000Y-79980000D03*
X169000000Y-82520000D03*
X169000000Y-85060000D03*
X169000000Y-87600000D03*
X169000000Y-90140000D03*
X169000000Y-92680000D03*
X169000000Y-95220000D03*
X169000000Y-97760000D03*
X169000000Y-100300000D03*
X169000000Y-102840000D03*
X169000000Y-105380000D03*
X169000000Y-107920000D03*
X169000000Y-110460000D03*
X169000000Y-113000000D03*
%TO.C,D3*%
X115130000Y-125260000D03*
X115130000Y-127800000D03*
X115130000Y-130340000D03*
X115130000Y-132880000D03*
X115130000Y-135420000D03*
X115130000Y-137960000D03*
X115130000Y-140500000D03*
X122750000Y-125260000D03*
X122750000Y-127800000D03*
X122750000Y-130340000D03*
X122750000Y-132880000D03*
X122750000Y-135420000D03*
X122750000Y-137960000D03*
X122750000Y-140500000D03*
%TO.C,R7*%
X176000000Y-49840000D03*
X176000000Y-60000000D03*
%TO.C,C5*%
X166000000Y-75000000D03*
X171000000Y-75000000D03*
X173500000Y-75000000D03*
D13*
%TO.C,B01*%
X81000000Y-135500000D03*
X83540000Y-135500000D03*
D14*
%TO.C,C1*%
X95000000Y-38000000D03*
X97500000Y-38000000D03*
X100000000Y-38000000D03*
X125500000Y-38000000D03*
X128000000Y-38000000D03*
X130500000Y-38000000D03*
M02*
