%TF.GenerationSoftware,KiCad,Pcbnew,5.1.8*%
%TF.CreationDate,2020-11-14T22:04:03+01:00*%
%TF.ProjectId,M037,4d303337-2e6b-4696-9361-645f70636258,rev?*%
%TF.SameCoordinates,Original*%
%TF.FileFunction,Copper,L1,Top*%
%TF.FilePolarity,Positive*%
%FSLAX46Y46*%
G04 Gerber Fmt 4.6, Leading zero omitted, Abs format (unit mm)*
G04 Created by KiCad (PCBNEW 5.1.8) date 2020-11-14 22:04:03*
%MOMM*%
%LPD*%
G01*
G04 APERTURE LIST*
%TA.AperFunction,NonConductor*%
%ADD10C,0.400000*%
%TD*%
%TA.AperFunction,NonConductor*%
%ADD11C,0.350000*%
%TD*%
%TA.AperFunction,ComponentPad*%
%ADD12R,1.800000X1.800000*%
%TD*%
%TA.AperFunction,ComponentPad*%
%ADD13O,1.800000X1.800000*%
%TD*%
%TA.AperFunction,ComponentPad*%
%ADD14C,1.800000*%
%TD*%
%TA.AperFunction,ComponentPad*%
%ADD15C,1.600000*%
%TD*%
%TA.AperFunction,ComponentPad*%
%ADD16O,2.400000X1.600000*%
%TD*%
%TA.AperFunction,ComponentPad*%
%ADD17R,2.400000X1.600000*%
%TD*%
%TA.AperFunction,ViaPad*%
%ADD18C,0.800000*%
%TD*%
%TA.AperFunction,ViaPad*%
%ADD19C,1.000000*%
%TD*%
%TA.AperFunction,Conductor*%
%ADD20C,0.250000*%
%TD*%
%TA.AperFunction,Conductor*%
%ADD21C,1.000000*%
%TD*%
G04 APERTURE END LIST*
D10*
X88095238Y-40523809D02*
X88000000Y-40428571D01*
X87904761Y-40238095D01*
X87904761Y-39761904D01*
X88000000Y-39571428D01*
X88095238Y-39476190D01*
X88285714Y-39380952D01*
X88476190Y-39380952D01*
X88761904Y-39476190D01*
X89904761Y-40619047D01*
X89904761Y-39380952D01*
X89904761Y-38428571D02*
X89904761Y-38047619D01*
X89809523Y-37857142D01*
X89714285Y-37761904D01*
X89428571Y-37571428D01*
X89047619Y-37476190D01*
X88285714Y-37476190D01*
X88095238Y-37571428D01*
X88000000Y-37666666D01*
X87904761Y-37857142D01*
X87904761Y-38238095D01*
X88000000Y-38428571D01*
X88095238Y-38523809D01*
X88285714Y-38619047D01*
X88761904Y-38619047D01*
X88952380Y-38523809D01*
X89047619Y-38428571D01*
X89142857Y-38238095D01*
X89142857Y-37857142D01*
X89047619Y-37666666D01*
X88952380Y-37571428D01*
X88761904Y-37476190D01*
X88857142Y-35952380D02*
X88952380Y-35666666D01*
X89047619Y-35571428D01*
X89238095Y-35476190D01*
X89523809Y-35476190D01*
X89714285Y-35571428D01*
X89809523Y-35666666D01*
X89904761Y-35857142D01*
X89904761Y-36619047D01*
X87904761Y-36619047D01*
X87904761Y-35952380D01*
X88000000Y-35761904D01*
X88095238Y-35666666D01*
X88285714Y-35571428D01*
X88476190Y-35571428D01*
X88666666Y-35666666D01*
X88761904Y-35761904D01*
X88857142Y-35952380D01*
X88857142Y-36619047D01*
D11*
X179637500Y-51679880D02*
X180804166Y-51679880D01*
X178970833Y-52156071D02*
X180220833Y-52632261D01*
X180220833Y-51394166D01*
X179637500Y-49775119D02*
X180804166Y-49775119D01*
X178970833Y-50251309D02*
X180220833Y-50727500D01*
X180220833Y-49489404D01*
X179804166Y-48441785D02*
X179720833Y-48632261D01*
X179637500Y-48727500D01*
X179470833Y-48822738D01*
X179387500Y-48822738D01*
X179220833Y-48727500D01*
X179137500Y-48632261D01*
X179054166Y-48441785D01*
X179054166Y-48060833D01*
X179137500Y-47870357D01*
X179220833Y-47775119D01*
X179387500Y-47679880D01*
X179470833Y-47679880D01*
X179637500Y-47775119D01*
X179720833Y-47870357D01*
X179804166Y-48060833D01*
X179804166Y-48441785D01*
X179887500Y-48632261D01*
X179970833Y-48727500D01*
X180137500Y-48822738D01*
X180470833Y-48822738D01*
X180637500Y-48727500D01*
X180720833Y-48632261D01*
X180804166Y-48441785D01*
X180804166Y-48060833D01*
X180720833Y-47870357D01*
X180637500Y-47775119D01*
X180470833Y-47679880D01*
X180137500Y-47679880D01*
X179970833Y-47775119D01*
X179887500Y-47870357D01*
X179804166Y-48060833D01*
X179637500Y-45965595D02*
X180804166Y-45965595D01*
X178970833Y-46441785D02*
X180220833Y-46917976D01*
X180220833Y-45679880D01*
X180637500Y-44917976D02*
X180720833Y-44822738D01*
X180804166Y-44917976D01*
X180720833Y-45013214D01*
X180637500Y-44917976D01*
X180804166Y-44917976D01*
X179804166Y-43679880D02*
X179720833Y-43870357D01*
X179637500Y-43965595D01*
X179470833Y-44060833D01*
X179387500Y-44060833D01*
X179220833Y-43965595D01*
X179137500Y-43870357D01*
X179054166Y-43679880D01*
X179054166Y-43298928D01*
X179137500Y-43108452D01*
X179220833Y-43013214D01*
X179387500Y-42917976D01*
X179470833Y-42917976D01*
X179637500Y-43013214D01*
X179720833Y-43108452D01*
X179804166Y-43298928D01*
X179804166Y-43679880D01*
X179887500Y-43870357D01*
X179970833Y-43965595D01*
X180137500Y-44060833D01*
X180470833Y-44060833D01*
X180637500Y-43965595D01*
X180720833Y-43870357D01*
X180804166Y-43679880D01*
X180804166Y-43298928D01*
X180720833Y-43108452D01*
X180637500Y-43013214D01*
X180470833Y-42917976D01*
X180137500Y-42917976D01*
X179970833Y-43013214D01*
X179887500Y-43108452D01*
X179804166Y-43298928D01*
X180804166Y-41965595D02*
X180804166Y-41584642D01*
X180720833Y-41394166D01*
X180637500Y-41298928D01*
X180387500Y-41108452D01*
X180054166Y-41013214D01*
X179387500Y-41013214D01*
X179220833Y-41108452D01*
X179137500Y-41203690D01*
X179054166Y-41394166D01*
X179054166Y-41775119D01*
X179137500Y-41965595D01*
X179220833Y-42060833D01*
X179387500Y-42156071D01*
X179804166Y-42156071D01*
X179970833Y-42060833D01*
X180054166Y-41965595D01*
X180137500Y-41775119D01*
X180137500Y-41394166D01*
X180054166Y-41203690D01*
X179970833Y-41108452D01*
X179804166Y-41013214D01*
X179054166Y-40346547D02*
X179054166Y-39013214D01*
X180804166Y-39870357D01*
X183112500Y-57584642D02*
X183112500Y-56060833D01*
X182029166Y-54727500D02*
X182029166Y-54537023D01*
X182112500Y-54346547D01*
X182195833Y-54251309D01*
X182362500Y-54156071D01*
X182695833Y-54060833D01*
X183112500Y-54060833D01*
X183445833Y-54156071D01*
X183612500Y-54251309D01*
X183695833Y-54346547D01*
X183779166Y-54537023D01*
X183779166Y-54727500D01*
X183695833Y-54917976D01*
X183612500Y-55013214D01*
X183445833Y-55108452D01*
X183112500Y-55203690D01*
X182695833Y-55203690D01*
X182362500Y-55108452D01*
X182195833Y-55013214D01*
X182112500Y-54917976D01*
X182029166Y-54727500D01*
X182195833Y-53298928D02*
X182112500Y-53203690D01*
X182029166Y-53013214D01*
X182029166Y-52537023D01*
X182112500Y-52346547D01*
X182195833Y-52251309D01*
X182362500Y-52156071D01*
X182529166Y-52156071D01*
X182779166Y-52251309D01*
X183779166Y-53394166D01*
X183779166Y-52156071D01*
X183779166Y-51203690D02*
X183779166Y-50822738D01*
X183695833Y-50632261D01*
X183612500Y-50537023D01*
X183362500Y-50346547D01*
X183029166Y-50251309D01*
X182362500Y-50251309D01*
X182195833Y-50346547D01*
X182112500Y-50441785D01*
X182029166Y-50632261D01*
X182029166Y-51013214D01*
X182112500Y-51203690D01*
X182195833Y-51298928D01*
X182362500Y-51394166D01*
X182779166Y-51394166D01*
X182945833Y-51298928D01*
X183029166Y-51203690D01*
X183112500Y-51013214D01*
X183112500Y-50632261D01*
X183029166Y-50441785D01*
X182945833Y-50346547D01*
X182779166Y-50251309D01*
X182029166Y-49584642D02*
X182029166Y-48346547D01*
X182695833Y-49013214D01*
X182695833Y-48727500D01*
X182779166Y-48537023D01*
X182862500Y-48441785D01*
X183029166Y-48346547D01*
X183445833Y-48346547D01*
X183612500Y-48441785D01*
X183695833Y-48537023D01*
X183779166Y-48727500D01*
X183779166Y-49298928D01*
X183695833Y-49489404D01*
X183612500Y-49584642D01*
X182029166Y-47679880D02*
X182029166Y-46346547D01*
X183779166Y-47203690D01*
X182862500Y-43394166D02*
X182945833Y-43108452D01*
X183029166Y-43013214D01*
X183195833Y-42917976D01*
X183445833Y-42917976D01*
X183612500Y-43013214D01*
X183695833Y-43108452D01*
X183779166Y-43298928D01*
X183779166Y-44060833D01*
X182029166Y-44060833D01*
X182029166Y-43394166D01*
X182112500Y-43203690D01*
X182195833Y-43108452D01*
X182362500Y-43013214D01*
X182529166Y-43013214D01*
X182695833Y-43108452D01*
X182779166Y-43203690D01*
X182862500Y-43394166D01*
X182862500Y-44060833D01*
X182029166Y-41679880D02*
X182029166Y-41489404D01*
X182112500Y-41298928D01*
X182195833Y-41203690D01*
X182362500Y-41108452D01*
X182695833Y-41013214D01*
X183112500Y-41013214D01*
X183445833Y-41108452D01*
X183612500Y-41203690D01*
X183695833Y-41298928D01*
X183779166Y-41489404D01*
X183779166Y-41679880D01*
X183695833Y-41870357D01*
X183612500Y-41965595D01*
X183445833Y-42060833D01*
X183112500Y-42156071D01*
X182695833Y-42156071D01*
X182362500Y-42060833D01*
X182195833Y-41965595D01*
X182112500Y-41870357D01*
X182029166Y-41679880D01*
X183779166Y-39108452D02*
X183779166Y-40251309D01*
X183779166Y-39679880D02*
X182029166Y-39679880D01*
X182279166Y-39870357D01*
X182445833Y-40060833D01*
X182529166Y-40251309D01*
D10*
X79404761Y-136023809D02*
X77404761Y-136023809D01*
X79404761Y-134880952D02*
X78261904Y-135738095D01*
X77404761Y-134880952D02*
X78547619Y-136023809D01*
X87607142Y-137690476D02*
X87335714Y-137595238D01*
X86883333Y-137595238D01*
X86702380Y-137690476D01*
X86611904Y-137785714D01*
X86521428Y-137976190D01*
X86521428Y-138166666D01*
X86611904Y-138357142D01*
X86702380Y-138452380D01*
X86883333Y-138547619D01*
X87245238Y-138642857D01*
X87426190Y-138738095D01*
X87516666Y-138833333D01*
X87607142Y-139023809D01*
X87607142Y-139214285D01*
X87516666Y-139404761D01*
X87426190Y-139500000D01*
X87245238Y-139595238D01*
X86792857Y-139595238D01*
X86521428Y-139500000D01*
X85707142Y-138642857D02*
X85073809Y-138642857D01*
X84802380Y-137595238D02*
X85707142Y-137595238D01*
X85707142Y-139595238D01*
X84802380Y-139595238D01*
X82992857Y-139500000D02*
X83173809Y-139595238D01*
X83445238Y-139595238D01*
X83716666Y-139500000D01*
X83897619Y-139309523D01*
X83988095Y-139119047D01*
X84078571Y-138738095D01*
X84078571Y-138452380D01*
X83988095Y-138071428D01*
X83897619Y-137880952D01*
X83716666Y-137690476D01*
X83445238Y-137595238D01*
X83264285Y-137595238D01*
X82992857Y-137690476D01*
X82902380Y-137785714D01*
X82902380Y-138452380D01*
X83264285Y-138452380D01*
X79554761Y-137595238D02*
X80188095Y-138547619D01*
X80640476Y-137595238D02*
X80640476Y-139595238D01*
X79916666Y-139595238D01*
X79735714Y-139500000D01*
X79645238Y-139404761D01*
X79554761Y-139214285D01*
X79554761Y-138928571D01*
X79645238Y-138738095D01*
X79735714Y-138642857D01*
X79916666Y-138547619D01*
X80640476Y-138547619D01*
X78378571Y-139595238D02*
X78016666Y-139595238D01*
X77835714Y-139500000D01*
X77654761Y-139309523D01*
X77564285Y-138928571D01*
X77564285Y-138261904D01*
X77654761Y-137880952D01*
X77835714Y-137690476D01*
X78016666Y-137595238D01*
X78378571Y-137595238D01*
X78559523Y-137690476D01*
X78740476Y-137880952D01*
X78830952Y-138261904D01*
X78830952Y-138928571D01*
X78740476Y-139309523D01*
X78559523Y-139500000D01*
X78378571Y-139595238D01*
X76750000Y-137595238D02*
X76750000Y-139595238D01*
X76116666Y-138166666D01*
X75483333Y-139595238D01*
X75483333Y-137595238D01*
D12*
%TO.P,C1,1*%
%TO.N,+5V*%
X100000000Y-38000000D03*
X95000000Y-38000000D03*
X97500000Y-38000000D03*
D13*
%TO.P,C1,2*%
%TO.N,GND*%
X128000000Y-38000000D03*
X125500000Y-38000000D03*
X130500000Y-38000000D03*
%TD*%
%TO.P,X1,9B*%
%TO.N,~IORQ*%
%TA.AperFunction,SMDPad,CuDef*%
G36*
G01*
X141550000Y-29100000D02*
X141550000Y-22900000D01*
G75*
G02*
X141700000Y-22750000I150000J0D01*
G01*
X142900000Y-22750000D01*
G75*
G02*
X143050000Y-22900000I0J-150000D01*
G01*
X143050000Y-29100000D01*
G75*
G02*
X142900000Y-29250000I-150000J0D01*
G01*
X141700000Y-29250000D01*
G75*
G02*
X141550000Y-29100000I0J150000D01*
G01*
G37*
%TD.AperFunction*%
%TO.P,X1,8B*%
%TO.N,~RD*%
%TA.AperFunction,SMDPad,CuDef*%
G36*
G01*
X144050000Y-29100000D02*
X144050000Y-22900000D01*
G75*
G02*
X144200000Y-22750000I150000J0D01*
G01*
X145400000Y-22750000D01*
G75*
G02*
X145550000Y-22900000I0J-150000D01*
G01*
X145550000Y-29100000D01*
G75*
G02*
X145400000Y-29250000I-150000J0D01*
G01*
X144200000Y-29250000D01*
G75*
G02*
X144050000Y-29100000I0J150000D01*
G01*
G37*
%TD.AperFunction*%
%TO.P,X1,7B*%
%TO.N,DB0*%
%TA.AperFunction,SMDPad,CuDef*%
G36*
G01*
X146550000Y-29100000D02*
X146550000Y-22900000D01*
G75*
G02*
X146700000Y-22750000I150000J0D01*
G01*
X147900000Y-22750000D01*
G75*
G02*
X148050000Y-22900000I0J-150000D01*
G01*
X148050000Y-29100000D01*
G75*
G02*
X147900000Y-29250000I-150000J0D01*
G01*
X146700000Y-29250000D01*
G75*
G02*
X146550000Y-29100000I0J150000D01*
G01*
G37*
%TD.AperFunction*%
%TO.P,X1,6B*%
%TO.N,DB2*%
%TA.AperFunction,SMDPad,CuDef*%
G36*
G01*
X149050000Y-29100000D02*
X149050000Y-22900000D01*
G75*
G02*
X149200000Y-22750000I150000J0D01*
G01*
X150400000Y-22750000D01*
G75*
G02*
X150550000Y-22900000I0J-150000D01*
G01*
X150550000Y-29100000D01*
G75*
G02*
X150400000Y-29250000I-150000J0D01*
G01*
X149200000Y-29250000D01*
G75*
G02*
X149050000Y-29100000I0J150000D01*
G01*
G37*
%TD.AperFunction*%
%TO.P,X1,5B*%
%TO.N,DB4*%
%TA.AperFunction,SMDPad,CuDef*%
G36*
G01*
X151550000Y-29100000D02*
X151550000Y-22900000D01*
G75*
G02*
X151700000Y-22750000I150000J0D01*
G01*
X152900000Y-22750000D01*
G75*
G02*
X153050000Y-22900000I0J-150000D01*
G01*
X153050000Y-29100000D01*
G75*
G02*
X152900000Y-29250000I-150000J0D01*
G01*
X151700000Y-29250000D01*
G75*
G02*
X151550000Y-29100000I0J150000D01*
G01*
G37*
%TD.AperFunction*%
%TO.P,X1,4B*%
%TO.N,DB6*%
%TA.AperFunction,SMDPad,CuDef*%
G36*
G01*
X154050000Y-29100000D02*
X154050000Y-22900000D01*
G75*
G02*
X154200000Y-22750000I150000J0D01*
G01*
X155400000Y-22750000D01*
G75*
G02*
X155550000Y-22900000I0J-150000D01*
G01*
X155550000Y-29100000D01*
G75*
G02*
X155400000Y-29250000I-150000J0D01*
G01*
X154200000Y-29250000D01*
G75*
G02*
X154050000Y-29100000I0J150000D01*
G01*
G37*
%TD.AperFunction*%
%TO.P,X1,2B*%
%TO.N,GND*%
%TA.AperFunction,SMDPad,CuDef*%
G36*
G01*
X159050000Y-29100000D02*
X159050000Y-22900000D01*
G75*
G02*
X159200000Y-22750000I150000J0D01*
G01*
X160400000Y-22750000D01*
G75*
G02*
X160550000Y-22900000I0J-150000D01*
G01*
X160550000Y-29100000D01*
G75*
G02*
X160400000Y-29250000I-150000J0D01*
G01*
X159200000Y-29250000D01*
G75*
G02*
X159050000Y-29100000I0J150000D01*
G01*
G37*
%TD.AperFunction*%
%TO.P,X1,29B*%
%TO.N,+5V*%
%TA.AperFunction,SMDPad,CuDef*%
G36*
G01*
X91550000Y-29100000D02*
X91550000Y-22900000D01*
G75*
G02*
X91700000Y-22750000I150000J0D01*
G01*
X92900000Y-22750000D01*
G75*
G02*
X93050000Y-22900000I0J-150000D01*
G01*
X93050000Y-29100000D01*
G75*
G02*
X92900000Y-29250000I-150000J0D01*
G01*
X91700000Y-29250000D01*
G75*
G02*
X91550000Y-29100000I0J150000D01*
G01*
G37*
%TD.AperFunction*%
%TO.P,X1,24B*%
%TO.N,MEI*%
%TA.AperFunction,SMDPad,CuDef*%
G36*
G01*
X104050000Y-29100000D02*
X104050000Y-22900000D01*
G75*
G02*
X104200000Y-22750000I150000J0D01*
G01*
X105400000Y-22750000D01*
G75*
G02*
X105550000Y-22900000I0J-150000D01*
G01*
X105550000Y-29100000D01*
G75*
G02*
X105400000Y-29250000I-150000J0D01*
G01*
X104200000Y-29250000D01*
G75*
G02*
X104050000Y-29100000I0J150000D01*
G01*
G37*
%TD.AperFunction*%
%TO.P,X1,21B*%
%TO.N,GND*%
%TA.AperFunction,SMDPad,CuDef*%
G36*
G01*
X111550000Y-29100000D02*
X111550000Y-22900000D01*
G75*
G02*
X111700000Y-22750000I150000J0D01*
G01*
X112900000Y-22750000D01*
G75*
G02*
X113050000Y-22900000I0J-150000D01*
G01*
X113050000Y-29100000D01*
G75*
G02*
X112900000Y-29250000I-150000J0D01*
G01*
X111700000Y-29250000D01*
G75*
G02*
X111550000Y-29100000I0J150000D01*
G01*
G37*
%TD.AperFunction*%
%TO.P,X1,1B*%
%TA.AperFunction,SMDPad,CuDef*%
G36*
G01*
X161550000Y-29100000D02*
X161550000Y-22900000D01*
G75*
G02*
X161700000Y-22750000I150000J0D01*
G01*
X162900000Y-22750000D01*
G75*
G02*
X163050000Y-22900000I0J-150000D01*
G01*
X163050000Y-29100000D01*
G75*
G02*
X162900000Y-29250000I-150000J0D01*
G01*
X161700000Y-29250000D01*
G75*
G02*
X161550000Y-29100000I0J150000D01*
G01*
G37*
%TD.AperFunction*%
%TO.P,X1,19B*%
%TO.N,AB1*%
%TA.AperFunction,SMDPad,CuDef*%
G36*
G01*
X116550000Y-29100000D02*
X116550000Y-22900000D01*
G75*
G02*
X116700000Y-22750000I150000J0D01*
G01*
X117900000Y-22750000D01*
G75*
G02*
X118050000Y-22900000I0J-150000D01*
G01*
X118050000Y-29100000D01*
G75*
G02*
X117900000Y-29250000I-150000J0D01*
G01*
X116700000Y-29250000D01*
G75*
G02*
X116550000Y-29100000I0J150000D01*
G01*
G37*
%TD.AperFunction*%
%TO.P,X1,18B*%
%TO.N,AB3*%
%TA.AperFunction,SMDPad,CuDef*%
G36*
G01*
X119050000Y-29100000D02*
X119050000Y-22900000D01*
G75*
G02*
X119200000Y-22750000I150000J0D01*
G01*
X120400000Y-22750000D01*
G75*
G02*
X120550000Y-22900000I0J-150000D01*
G01*
X120550000Y-29100000D01*
G75*
G02*
X120400000Y-29250000I-150000J0D01*
G01*
X119200000Y-29250000D01*
G75*
G02*
X119050000Y-29100000I0J150000D01*
G01*
G37*
%TD.AperFunction*%
%TO.P,X1,17B*%
%TO.N,AB5*%
%TA.AperFunction,SMDPad,CuDef*%
G36*
G01*
X121550000Y-29100000D02*
X121550000Y-22900000D01*
G75*
G02*
X121700000Y-22750000I150000J0D01*
G01*
X122900000Y-22750000D01*
G75*
G02*
X123050000Y-22900000I0J-150000D01*
G01*
X123050000Y-29100000D01*
G75*
G02*
X122900000Y-29250000I-150000J0D01*
G01*
X121700000Y-29250000D01*
G75*
G02*
X121550000Y-29100000I0J150000D01*
G01*
G37*
%TD.AperFunction*%
%TO.P,X1,16B*%
%TO.N,AB7*%
%TA.AperFunction,SMDPad,CuDef*%
G36*
G01*
X124050000Y-29100000D02*
X124050000Y-22900000D01*
G75*
G02*
X124200000Y-22750000I150000J0D01*
G01*
X125400000Y-22750000D01*
G75*
G02*
X125550000Y-22900000I0J-150000D01*
G01*
X125550000Y-29100000D01*
G75*
G02*
X125400000Y-29250000I-150000J0D01*
G01*
X124200000Y-29250000D01*
G75*
G02*
X124050000Y-29100000I0J150000D01*
G01*
G37*
%TD.AperFunction*%
%TO.P,X1,14B*%
%TO.N,AB9*%
%TA.AperFunction,SMDPad,CuDef*%
G36*
G01*
X129050000Y-29100000D02*
X129050000Y-22900000D01*
G75*
G02*
X129200000Y-22750000I150000J0D01*
G01*
X130400000Y-22750000D01*
G75*
G02*
X130550000Y-22900000I0J-150000D01*
G01*
X130550000Y-29100000D01*
G75*
G02*
X130400000Y-29250000I-150000J0D01*
G01*
X129200000Y-29250000D01*
G75*
G02*
X129050000Y-29100000I0J150000D01*
G01*
G37*
%TD.AperFunction*%
%TO.P,X1,13B*%
%TO.N,AB11*%
%TA.AperFunction,SMDPad,CuDef*%
G36*
G01*
X131550000Y-29100000D02*
X131550000Y-22900000D01*
G75*
G02*
X131700000Y-22750000I150000J0D01*
G01*
X132900000Y-22750000D01*
G75*
G02*
X133050000Y-22900000I0J-150000D01*
G01*
X133050000Y-29100000D01*
G75*
G02*
X132900000Y-29250000I-150000J0D01*
G01*
X131700000Y-29250000D01*
G75*
G02*
X131550000Y-29100000I0J150000D01*
G01*
G37*
%TD.AperFunction*%
%TO.P,X1,12B*%
%TO.N,AB13*%
%TA.AperFunction,SMDPad,CuDef*%
G36*
G01*
X134050000Y-29100000D02*
X134050000Y-22900000D01*
G75*
G02*
X134200000Y-22750000I150000J0D01*
G01*
X135400000Y-22750000D01*
G75*
G02*
X135550000Y-22900000I0J-150000D01*
G01*
X135550000Y-29100000D01*
G75*
G02*
X135400000Y-29250000I-150000J0D01*
G01*
X134200000Y-29250000D01*
G75*
G02*
X134050000Y-29100000I0J150000D01*
G01*
G37*
%TD.AperFunction*%
%TO.P,X1,11B*%
%TO.N,AB15*%
%TA.AperFunction,SMDPad,CuDef*%
G36*
G01*
X136550000Y-29100000D02*
X136550000Y-22900000D01*
G75*
G02*
X136700000Y-22750000I150000J0D01*
G01*
X137900000Y-22750000D01*
G75*
G02*
X138050000Y-22900000I0J-150000D01*
G01*
X138050000Y-29100000D01*
G75*
G02*
X137900000Y-29250000I-150000J0D01*
G01*
X136700000Y-29250000D01*
G75*
G02*
X136550000Y-29100000I0J150000D01*
G01*
G37*
%TD.AperFunction*%
%TO.P,X1,10B*%
%TO.N,IE-Kette*%
%TA.AperFunction,SMDPad,CuDef*%
G36*
G01*
X139050000Y-29100000D02*
X139050000Y-22900000D01*
G75*
G02*
X139200000Y-22750000I150000J0D01*
G01*
X140400000Y-22750000D01*
G75*
G02*
X140550000Y-22900000I0J-150000D01*
G01*
X140550000Y-29100000D01*
G75*
G02*
X140400000Y-29250000I-150000J0D01*
G01*
X139200000Y-29250000D01*
G75*
G02*
X139050000Y-29100000I0J150000D01*
G01*
G37*
%TD.AperFunction*%
%TD*%
D14*
%TO.P,B01,2*%
%TO.N,Net-(B01-Pad2)*%
X83540000Y-135500000D03*
D12*
%TO.P,B01,1*%
%TO.N,Net-(B01-Pad1)*%
X81000000Y-135500000D03*
%TD*%
D15*
%TO.P,C5,2*%
%TO.N,GND*%
X173500000Y-75000000D03*
X171000000Y-75000000D03*
%TO.P,C5,1*%
%TO.N,+5V*%
X166000000Y-75000000D03*
%TD*%
%TO.P,C4,2*%
%TO.N,GND*%
X153500000Y-75000000D03*
X151000000Y-75000000D03*
%TO.P,C4,1*%
%TO.N,+5V*%
X146000000Y-75000000D03*
%TD*%
%TO.P,C3,2*%
%TO.N,GND*%
X133000000Y-75000000D03*
X130500000Y-75000000D03*
%TO.P,C3,1*%
%TO.N,+5V*%
X125500000Y-75000000D03*
%TD*%
%TO.P,C2,2*%
%TO.N,GND*%
X112500000Y-75000000D03*
X110000000Y-75000000D03*
%TO.P,C2,1*%
%TO.N,+5V*%
X105000000Y-75000000D03*
%TD*%
%TO.P,C13,2*%
%TO.N,GND*%
X153750000Y-133000000D03*
X153750000Y-135500000D03*
%TO.P,C13,1*%
%TO.N,+5V*%
X153750000Y-140500000D03*
%TD*%
%TO.P,C12,2*%
%TO.N,GND*%
X125250000Y-133000000D03*
X125250000Y-135500000D03*
%TO.P,C12,1*%
%TO.N,+5V*%
X125250000Y-140500000D03*
%TD*%
%TO.P,C11,2*%
%TO.N,GND*%
X100000000Y-133000000D03*
X100000000Y-135500000D03*
%TO.P,C11,1*%
%TO.N,+5V*%
X100000000Y-140500000D03*
%TD*%
%TO.P,C10,2*%
%TO.N,GND*%
X85000000Y-85000000D03*
X85000000Y-87500000D03*
%TO.P,C10,1*%
%TO.N,+5V*%
X85000000Y-92500000D03*
%TD*%
%TO.P,C9,2*%
%TO.N,GND*%
X155750000Y-57500000D03*
X155750000Y-60000000D03*
%TO.P,C9,1*%
%TO.N,+5V*%
X155750000Y-65000000D03*
%TD*%
%TO.P,C8,2*%
%TO.N,GND*%
X125750000Y-60000000D03*
X125750000Y-62500000D03*
%TO.P,C8,1*%
%TO.N,+5V*%
X125750000Y-67500000D03*
%TD*%
%TO.P,C7,2*%
%TO.N,GND*%
X110250000Y-60000000D03*
X110250000Y-62500000D03*
%TO.P,C7,1*%
%TO.N,+5V*%
X110250000Y-67500000D03*
%TD*%
%TO.P,C6,2*%
%TO.N,GND*%
X84750000Y-57500000D03*
X84750000Y-60000000D03*
%TO.P,C6,1*%
%TO.N,+5V*%
X84750000Y-65000000D03*
%TD*%
D14*
%TO.P,R8,2*%
%TO.N,DB7*%
X173500000Y-52340000D03*
%TO.P,R8,1*%
%TO.N,/.08*%
X173500000Y-62500000D03*
%TD*%
%TO.P,R7,2*%
%TO.N,DB6*%
X176000000Y-49840000D03*
%TO.P,R7,1*%
%TO.N,/.07*%
X176000000Y-60000000D03*
%TD*%
%TO.P,R6,2*%
%TO.N,DB5*%
X168500000Y-52340000D03*
%TO.P,R6,1*%
%TO.N,/.06*%
X168500000Y-62500000D03*
%TD*%
%TO.P,R5,2*%
%TO.N,DB4*%
X171000000Y-49840000D03*
%TO.P,R5,1*%
%TO.N,/.05*%
X171000000Y-60000000D03*
%TD*%
%TO.P,R4,2*%
%TO.N,DB3*%
X163500000Y-52340000D03*
%TO.P,R4,1*%
%TO.N,/.04*%
X163500000Y-62500000D03*
%TD*%
%TO.P,R3,2*%
%TO.N,DB2*%
X166000000Y-49840000D03*
%TO.P,R3,1*%
%TO.N,/.03*%
X166000000Y-60000000D03*
%TD*%
%TO.P,R2,2*%
%TO.N,DB1*%
X158500000Y-52340000D03*
%TO.P,R2,1*%
%TO.N,/.02*%
X158500000Y-62500000D03*
%TD*%
%TO.P,R1,2*%
%TO.N,DB0*%
X161000000Y-49840000D03*
%TO.P,R1,1*%
%TO.N,/.01*%
X161000000Y-60000000D03*
%TD*%
%TO.P,R9,2*%
%TO.N,+5V*%
X79500000Y-120340000D03*
%TO.P,R9,1*%
%TO.N,Net-(B01-Pad2)*%
X79500000Y-130500000D03*
%TD*%
D16*
%TO.P,D1,14*%
%TO.N,+5V*%
X102880000Y-140500000D03*
%TO.P,D1,7*%
%TO.N,GND*%
X110500000Y-125260000D03*
%TO.P,D1,13*%
%TO.N,Net-(D1-Pad13)*%
X102880000Y-137960000D03*
%TO.P,D1,6*%
%TO.N,/~write*%
X110500000Y-127800000D03*
%TO.P,D1,12*%
%TO.N,Net-(D1-Pad12)*%
X102880000Y-135420000D03*
%TO.P,D1,5*%
%TO.N,/.23*%
X110500000Y-130340000D03*
%TO.P,D1,11*%
%TO.N,Net-(D1-Pad11)*%
X102880000Y-132880000D03*
%TO.P,D1,4*%
%TO.N,/.23*%
X110500000Y-132880000D03*
%TO.P,D1,10*%
%TO.N,Net-(D1-Pad10)*%
X102880000Y-130340000D03*
%TO.P,D1,3*%
%TO.N,Net-(D1-Pad3)*%
X110500000Y-135420000D03*
%TO.P,D1,9*%
%TO.N,Net-(D1-Pad9)*%
X102880000Y-127800000D03*
%TO.P,D1,2*%
%TO.N,/.23*%
X110500000Y-137960000D03*
%TO.P,D1,8*%
%TO.N,Net-(D1-Pad8)*%
X102880000Y-125260000D03*
D17*
%TO.P,D1,1*%
%TO.N,/.23*%
X110500000Y-140500000D03*
%TD*%
D14*
%TO.P,RB08,2*%
%TO.N,Net-(D10-Pad1)*%
X87500000Y-95040000D03*
%TO.P,RB08,1*%
%TO.N,Net-(D10-Pad10)*%
X87500000Y-92500000D03*
%TD*%
%TO.P,RB07,2*%
%TO.N,/.02*%
X87500000Y-84960000D03*
%TO.P,RB07,1*%
%TO.N,Net-(D10-Pad3)*%
X87500000Y-87500000D03*
%TD*%
%TO.P,RB06,2*%
%TO.N,/.01*%
X87500000Y-99960000D03*
%TO.P,RB06,1*%
%TO.N,Net-(D8-Pad11)*%
X87500000Y-102500000D03*
%TD*%
%TO.P,RB05,2*%
%TO.N,/.35*%
X181500000Y-110460000D03*
%TO.P,RB05,1*%
%TO.N,Net-(D6-Pad2)*%
X181500000Y-107920000D03*
%TD*%
%TO.P,RB04,2*%
%TO.N,/.34*%
X176000000Y-110460000D03*
%TO.P,RB04,1*%
%TO.N,Net-(D6-Pad9)*%
X176000000Y-107920000D03*
%TD*%
%TO.P,RB03,2*%
%TO.N,/.34*%
X176000000Y-110460000D03*
%TO.P,RB03,1*%
%TO.N,+5V*%
X176000000Y-113000000D03*
%TD*%
%TO.P,RB02,2*%
%TO.N,/.35*%
X181500000Y-110460000D03*
%TO.P,RB02,1*%
%TO.N,+5V*%
X181500000Y-113000000D03*
%TD*%
%TO.P,RB01,2*%
%TO.N,Net-(D10-Pad10)*%
X87500000Y-80040000D03*
%TO.P,RB01,1*%
%TO.N,GND*%
X87500000Y-77500000D03*
%TD*%
D16*
%TO.P,D19,28*%
%TO.N,+5V*%
X153760000Y-113000000D03*
%TO.P,D19,14*%
%TO.N,GND*%
X169000000Y-79980000D03*
%TO.P,D19,27*%
%TO.N,/.35*%
X153760000Y-110460000D03*
%TO.P,D19,13*%
%TO.N,/.03*%
X169000000Y-82520000D03*
%TO.P,D19,26*%
%TO.N,/.34*%
X153760000Y-107920000D03*
%TO.P,D19,12*%
%TO.N,/.02*%
X169000000Y-85060000D03*
%TO.P,D19,25*%
%TO.N,/.17*%
X153760000Y-105380000D03*
%TO.P,D19,11*%
%TO.N,/.01*%
X169000000Y-87600000D03*
%TO.P,D19,24*%
%TO.N,/.18*%
X153760000Y-102840000D03*
%TO.P,D19,10*%
%TO.N,/.09*%
X169000000Y-90140000D03*
%TO.P,D19,23*%
%TO.N,/.20*%
X153760000Y-100300000D03*
%TO.P,D19,9*%
%TO.N,/.10*%
X169000000Y-92680000D03*
%TO.P,D19,22*%
%TO.N,/.32*%
X153760000Y-97760000D03*
%TO.P,D19,8*%
%TO.N,/.11*%
X169000000Y-95220000D03*
%TO.P,D19,21*%
%TO.N,/.19*%
X153760000Y-95220000D03*
%TO.P,D19,7*%
%TO.N,/.12*%
X169000000Y-97760000D03*
%TO.P,D19,20*%
%TO.N,/.31*%
X153760000Y-92680000D03*
%TO.P,D19,6*%
%TO.N,/.13*%
X169000000Y-100300000D03*
%TO.P,D19,19*%
%TO.N,/.08*%
X153760000Y-90140000D03*
%TO.P,D19,5*%
%TO.N,/.14*%
X169000000Y-102840000D03*
%TO.P,D19,18*%
%TO.N,/.07*%
X153760000Y-87600000D03*
%TO.P,D19,4*%
%TO.N,/.15*%
X169000000Y-105380000D03*
%TO.P,D19,17*%
%TO.N,/.06*%
X153760000Y-85060000D03*
%TO.P,D19,3*%
%TO.N,/.16*%
X169000000Y-107920000D03*
%TO.P,D19,16*%
%TO.N,/.05*%
X153760000Y-82520000D03*
%TO.P,D19,2*%
%TO.N,/.21*%
X169000000Y-110460000D03*
%TO.P,D19,15*%
%TO.N,/.04*%
X153760000Y-79980000D03*
D17*
%TO.P,D19,1*%
%TO.N,+5V*%
X169000000Y-113000000D03*
%TD*%
D16*
%TO.P,D18,28*%
%TO.N,+5V*%
X133260000Y-113000000D03*
%TO.P,D18,14*%
%TO.N,GND*%
X148500000Y-79980000D03*
%TO.P,D18,27*%
%TO.N,/.35*%
X133260000Y-110460000D03*
%TO.P,D18,13*%
%TO.N,/.03*%
X148500000Y-82520000D03*
%TO.P,D18,26*%
%TO.N,/.34*%
X133260000Y-107920000D03*
%TO.P,D18,12*%
%TO.N,/.02*%
X148500000Y-85060000D03*
%TO.P,D18,25*%
%TO.N,/.17*%
X133260000Y-105380000D03*
%TO.P,D18,11*%
%TO.N,/.01*%
X148500000Y-87600000D03*
%TO.P,D18,24*%
%TO.N,/.18*%
X133260000Y-102840000D03*
%TO.P,D18,10*%
%TO.N,/.09*%
X148500000Y-90140000D03*
%TO.P,D18,23*%
%TO.N,/.20*%
X133260000Y-100300000D03*
%TO.P,D18,9*%
%TO.N,/.10*%
X148500000Y-92680000D03*
%TO.P,D18,22*%
%TO.N,/.32*%
X133260000Y-97760000D03*
%TO.P,D18,8*%
%TO.N,/.11*%
X148500000Y-95220000D03*
%TO.P,D18,21*%
%TO.N,/.19*%
X133260000Y-95220000D03*
%TO.P,D18,7*%
%TO.N,/.12*%
X148500000Y-97760000D03*
%TO.P,D18,20*%
%TO.N,/.30*%
X133260000Y-92680000D03*
%TO.P,D18,6*%
%TO.N,/.13*%
X148500000Y-100300000D03*
%TO.P,D18,19*%
%TO.N,/.08*%
X133260000Y-90140000D03*
%TO.P,D18,5*%
%TO.N,/.14*%
X148500000Y-102840000D03*
%TO.P,D18,18*%
%TO.N,/.07*%
X133260000Y-87600000D03*
%TO.P,D18,4*%
%TO.N,/.15*%
X148500000Y-105380000D03*
%TO.P,D18,17*%
%TO.N,/.06*%
X133260000Y-85060000D03*
%TO.P,D18,3*%
%TO.N,/.16*%
X148500000Y-107920000D03*
%TO.P,D18,16*%
%TO.N,/.05*%
X133260000Y-82520000D03*
%TO.P,D18,2*%
%TO.N,/.21*%
X148500000Y-110460000D03*
%TO.P,D18,15*%
%TO.N,/.04*%
X133260000Y-79980000D03*
D17*
%TO.P,D18,1*%
%TO.N,+5V*%
X148500000Y-113000000D03*
%TD*%
D16*
%TO.P,D17,28*%
%TO.N,+5V*%
X112760000Y-113000000D03*
%TO.P,D17,14*%
%TO.N,GND*%
X128000000Y-79980000D03*
%TO.P,D17,27*%
%TO.N,/.35*%
X112760000Y-110460000D03*
%TO.P,D17,13*%
%TO.N,/.03*%
X128000000Y-82520000D03*
%TO.P,D17,26*%
%TO.N,/.34*%
X112760000Y-107920000D03*
%TO.P,D17,12*%
%TO.N,/.02*%
X128000000Y-85060000D03*
%TO.P,D17,25*%
%TO.N,/.17*%
X112760000Y-105380000D03*
%TO.P,D17,11*%
%TO.N,/.01*%
X128000000Y-87600000D03*
%TO.P,D17,24*%
%TO.N,/.18*%
X112760000Y-102840000D03*
%TO.P,D17,10*%
%TO.N,/.09*%
X128000000Y-90140000D03*
%TO.P,D17,23*%
%TO.N,/.20*%
X112760000Y-100300000D03*
%TO.P,D17,9*%
%TO.N,/.10*%
X128000000Y-92680000D03*
%TO.P,D17,22*%
%TO.N,/.32*%
X112760000Y-97760000D03*
%TO.P,D17,8*%
%TO.N,/.11*%
X128000000Y-95220000D03*
%TO.P,D17,21*%
%TO.N,/.19*%
X112760000Y-95220000D03*
%TO.P,D17,7*%
%TO.N,/.12*%
X128000000Y-97760000D03*
%TO.P,D17,20*%
%TO.N,/.29*%
X112760000Y-92680000D03*
%TO.P,D17,6*%
%TO.N,/.13*%
X128000000Y-100300000D03*
%TO.P,D17,19*%
%TO.N,/.08*%
X112760000Y-90140000D03*
%TO.P,D17,5*%
%TO.N,/.14*%
X128000000Y-102840000D03*
%TO.P,D17,18*%
%TO.N,/.07*%
X112760000Y-87600000D03*
%TO.P,D17,4*%
%TO.N,/.15*%
X128000000Y-105380000D03*
%TO.P,D17,17*%
%TO.N,/.06*%
X112760000Y-85060000D03*
%TO.P,D17,3*%
%TO.N,/.16*%
X128000000Y-107920000D03*
%TO.P,D17,16*%
%TO.N,/.05*%
X112760000Y-82520000D03*
%TO.P,D17,2*%
%TO.N,/.21*%
X128000000Y-110460000D03*
%TO.P,D17,15*%
%TO.N,/.04*%
X112760000Y-79980000D03*
D17*
%TO.P,D17,1*%
%TO.N,+5V*%
X128000000Y-113000000D03*
%TD*%
D16*
%TO.P,D16,28*%
%TO.N,+5V*%
X92260000Y-113000000D03*
%TO.P,D16,14*%
%TO.N,GND*%
X107500000Y-79980000D03*
%TO.P,D16,27*%
%TO.N,/.35*%
X92260000Y-110460000D03*
%TO.P,D16,13*%
%TO.N,/.03*%
X107500000Y-82520000D03*
%TO.P,D16,26*%
%TO.N,/.34*%
X92260000Y-107920000D03*
%TO.P,D16,12*%
%TO.N,/.02*%
X107500000Y-85060000D03*
%TO.P,D16,25*%
%TO.N,/.17*%
X92260000Y-105380000D03*
%TO.P,D16,11*%
%TO.N,/.01*%
X107500000Y-87600000D03*
%TO.P,D16,24*%
%TO.N,/.18*%
X92260000Y-102840000D03*
%TO.P,D16,10*%
%TO.N,/.09*%
X107500000Y-90140000D03*
%TO.P,D16,23*%
%TO.N,/.20*%
X92260000Y-100300000D03*
%TO.P,D16,9*%
%TO.N,/.10*%
X107500000Y-92680000D03*
%TO.P,D16,22*%
%TO.N,/.32*%
X92260000Y-97760000D03*
%TO.P,D16,8*%
%TO.N,/.11*%
X107500000Y-95220000D03*
%TO.P,D16,21*%
%TO.N,/.19*%
X92260000Y-95220000D03*
%TO.P,D16,7*%
%TO.N,/.12*%
X107500000Y-97760000D03*
%TO.P,D16,20*%
%TO.N,/.28*%
X92260000Y-92680000D03*
%TO.P,D16,6*%
%TO.N,/.13*%
X107500000Y-100300000D03*
%TO.P,D16,19*%
%TO.N,/.08*%
X92260000Y-90140000D03*
%TO.P,D16,5*%
%TO.N,/.14*%
X107500000Y-102840000D03*
%TO.P,D16,18*%
%TO.N,/.07*%
X92260000Y-87600000D03*
%TO.P,D16,4*%
%TO.N,/.15*%
X107500000Y-105380000D03*
%TO.P,D16,17*%
%TO.N,/.06*%
X92260000Y-85060000D03*
%TO.P,D16,3*%
%TO.N,/.16*%
X107500000Y-107920000D03*
%TO.P,D16,16*%
%TO.N,/.05*%
X92260000Y-82520000D03*
%TO.P,D16,2*%
%TO.N,/.21*%
X107500000Y-110460000D03*
%TO.P,D16,15*%
%TO.N,/.04*%
X92260000Y-79980000D03*
D17*
%TO.P,D16,1*%
%TO.N,+5V*%
X107500000Y-113000000D03*
%TD*%
D16*
%TO.P,D15,14*%
%TO.N,+5V*%
X143380000Y-140500000D03*
%TO.P,D15,7*%
%TO.N,GND*%
X151000000Y-125260000D03*
%TO.P,D15,13*%
%TO.N,Net-(D15-Pad12)*%
X143380000Y-137960000D03*
%TO.P,D15,6*%
%TO.N,Net-(D15-Pad6)*%
X151000000Y-127800000D03*
%TO.P,D15,12*%
%TO.N,Net-(D15-Pad12)*%
X143380000Y-135420000D03*
%TO.P,D15,5*%
%TO.N,Net-(D15-Pad5)*%
X151000000Y-130340000D03*
%TO.P,D15,11*%
%TO.N,/.27*%
X143380000Y-132880000D03*
%TO.P,D15,4*%
%TO.N,Net-(D1-Pad8)*%
X151000000Y-132880000D03*
%TO.P,D15,10*%
%TO.N,Net-(D14-Pad2)*%
X143380000Y-130340000D03*
%TO.P,D15,3*%
%TO.N,Net-(D15-Pad3)*%
X151000000Y-135420000D03*
%TO.P,D15,9*%
%TO.N,Net-(D14-Pad6)*%
X143380000Y-127800000D03*
%TO.P,D15,2*%
%TO.N,/.23*%
X151000000Y-137960000D03*
%TO.P,D15,8*%
%TO.N,Net-(D15-Pad5)*%
X143380000Y-125260000D03*
D17*
%TO.P,D15,1*%
%TO.N,Net-(D15-Pad1)*%
X151000000Y-140500000D03*
%TD*%
D16*
%TO.P,D14,14*%
%TO.N,+5V*%
X127880000Y-140500000D03*
%TO.P,D14,7*%
%TO.N,GND*%
X135500000Y-125260000D03*
%TO.P,D14,13*%
%TO.N,+5V*%
X127880000Y-137960000D03*
%TO.P,D14,6*%
%TO.N,Net-(D14-Pad6)*%
X135500000Y-127800000D03*
%TO.P,D14,12*%
%TO.N,Net-(D14-Pad12)*%
X127880000Y-135420000D03*
%TO.P,D14,5*%
%TO.N,Net-(D14-Pad5)*%
X135500000Y-130340000D03*
%TO.P,D14,11*%
%TO.N,/.27*%
X127880000Y-132880000D03*
%TO.P,D14,4*%
%TO.N,+5V*%
X135500000Y-132880000D03*
%TO.P,D14,10*%
X127880000Y-130340000D03*
%TO.P,D14,3*%
%TO.N,/.27*%
X135500000Y-135420000D03*
%TO.P,D14,9*%
%TO.N,Net-(D14-Pad2)*%
X127880000Y-127800000D03*
%TO.P,D14,2*%
X135500000Y-137960000D03*
%TO.P,D14,8*%
%TO.N,/.32*%
X127880000Y-125260000D03*
D17*
%TO.P,D14,1*%
%TO.N,+5V*%
X135500000Y-140500000D03*
%TD*%
D16*
%TO.P,D13,14*%
%TO.N,+5V*%
X74380000Y-65000000D03*
%TO.P,D13,7*%
%TO.N,GND*%
X82000000Y-49760000D03*
%TO.P,D13,13*%
%TO.N,Net-(D13-Pad13)*%
X74380000Y-62460000D03*
%TO.P,D13,6*%
%TO.N,Net-(D12-Pad10)*%
X82000000Y-52300000D03*
%TO.P,D13,12*%
%TO.N,Net-(D11-Pad13)*%
X74380000Y-59920000D03*
%TO.P,D13,5*%
%TO.N,Net-(D12-Pad10)*%
X82000000Y-54840000D03*
%TO.P,D13,11*%
%TO.N,/.25*%
X74380000Y-57380000D03*
%TO.P,D13,4*%
%TO.N,Net-(D12-Pad4)*%
X82000000Y-57380000D03*
%TO.P,D13,10*%
%TO.N,Net-(D13-Pad10)*%
X74380000Y-54840000D03*
%TO.P,D13,3*%
%TO.N,/.16*%
X82000000Y-59920000D03*
%TO.P,D13,9*%
%TO.N,Net-(D13-Pad9)*%
X74380000Y-52300000D03*
%TO.P,D13,2*%
%TO.N,Net-(D12-Pad13)*%
X82000000Y-62460000D03*
%TO.P,D13,8*%
%TO.N,Net-(D11-Pad8)*%
X74380000Y-49760000D03*
D17*
%TO.P,D13,1*%
%TO.N,Net-(D12-Pad1)*%
X82000000Y-65000000D03*
%TD*%
D16*
%TO.P,D12,14*%
%TO.N,+5V*%
X87380000Y-65000000D03*
%TO.P,D12,7*%
%TO.N,GND*%
X95000000Y-49760000D03*
%TO.P,D12,13*%
%TO.N,Net-(D12-Pad13)*%
X87380000Y-62460000D03*
%TO.P,D12,6*%
%TO.N,/.10*%
X95000000Y-52300000D03*
%TO.P,D12,12*%
%TO.N,/.11*%
X87380000Y-59920000D03*
%TO.P,D12,5*%
%TO.N,/.09*%
X95000000Y-54840000D03*
%TO.P,D12,11*%
%TO.N,/.12*%
X87380000Y-57380000D03*
%TO.P,D12,4*%
%TO.N,Net-(D12-Pad4)*%
X95000000Y-57380000D03*
%TO.P,D12,10*%
%TO.N,Net-(D12-Pad10)*%
X87380000Y-54840000D03*
%TO.P,D12,3*%
%TO.N,/.13*%
X95000000Y-59920000D03*
%TO.P,D12,9*%
%TO.N,/.17*%
X87380000Y-52300000D03*
%TO.P,D12,2*%
%TO.N,/.14*%
X95000000Y-62460000D03*
%TO.P,D12,8*%
%TO.N,/.15*%
X87380000Y-49760000D03*
D17*
%TO.P,D12,1*%
%TO.N,Net-(D12-Pad1)*%
X95000000Y-65000000D03*
%TD*%
D16*
%TO.P,D11,14*%
%TO.N,+5V*%
X89630000Y-140500000D03*
%TO.P,D11,7*%
%TO.N,GND*%
X97250000Y-125260000D03*
%TO.P,D11,13*%
%TO.N,Net-(D11-Pad13)*%
X89630000Y-137960000D03*
%TO.P,D11,6*%
%TO.N,AB13*%
X97250000Y-127800000D03*
%TO.P,D11,12*%
%TO.N,~MAD*%
X89630000Y-135420000D03*
%TO.P,D11,5*%
%TO.N,/.24*%
X97250000Y-130340000D03*
%TO.P,D11,11*%
%TO.N,/.18*%
X89630000Y-132880000D03*
%TO.P,D11,4*%
%TO.N,Net-(D1-Pad10)*%
X97250000Y-132880000D03*
%TO.P,D11,10*%
%TO.N,Net-(D10-Pad1)*%
X89630000Y-130340000D03*
%TO.P,D11,3*%
%TO.N,Net-(D11-Pad3)*%
X97250000Y-135420000D03*
%TO.P,D11,9*%
%TO.N,/.24*%
X89630000Y-127800000D03*
%TO.P,D11,2*%
%TO.N,Net-(D11-Pad2)*%
X97250000Y-137960000D03*
%TO.P,D11,8*%
%TO.N,Net-(D11-Pad8)*%
X89630000Y-125260000D03*
D17*
%TO.P,D11,1*%
%TO.N,Net-(D1-Pad13)*%
X97250000Y-140500000D03*
%TD*%
D16*
%TO.P,D10,14*%
%TO.N,+5V*%
X74380000Y-92500000D03*
%TO.P,D10,7*%
%TO.N,GND*%
X82000000Y-77260000D03*
%TO.P,D10,13*%
%TO.N,Net-(D10-Pad10)*%
X74380000Y-89960000D03*
%TO.P,D10,6*%
%TO.N,/.05*%
X82000000Y-79800000D03*
%TO.P,D10,12*%
%TO.N,Net-(D10-Pad10)*%
X74380000Y-87420000D03*
%TO.P,D10,5*%
X82000000Y-82340000D03*
%TO.P,D10,11*%
%TO.N,/.07*%
X74380000Y-84880000D03*
%TO.P,D10,4*%
%TO.N,Net-(D10-Pad10)*%
X82000000Y-84880000D03*
%TO.P,D10,10*%
X74380000Y-82340000D03*
%TO.P,D10,3*%
%TO.N,Net-(D10-Pad3)*%
X82000000Y-87420000D03*
%TO.P,D10,9*%
%TO.N,Net-(D10-Pad10)*%
X74380000Y-79800000D03*
%TO.P,D10,2*%
%TO.N,Net-(D10-Pad1)*%
X82000000Y-89960000D03*
%TO.P,D10,8*%
%TO.N,/.06*%
X74380000Y-77260000D03*
D17*
%TO.P,D10,1*%
%TO.N,Net-(D10-Pad1)*%
X82000000Y-92500000D03*
%TD*%
D16*
%TO.P,D9,16*%
%TO.N,+5V*%
X157630000Y-140500000D03*
%TO.P,D9,8*%
%TO.N,GND*%
X165250000Y-122720000D03*
%TO.P,D9,15*%
%TO.N,Net-(D9-Pad15)*%
X157630000Y-137960000D03*
%TO.P,D9,7*%
%TO.N,/.28*%
X165250000Y-125260000D03*
%TO.P,D9,14*%
%TO.N,Net-(D9-Pad14)*%
X157630000Y-135420000D03*
%TO.P,D9,6*%
%TO.N,/.29*%
X165250000Y-127800000D03*
%TO.P,D9,13*%
%TO.N,/.36*%
X157630000Y-132880000D03*
%TO.P,D9,5*%
%TO.N,/.30*%
X165250000Y-130340000D03*
%TO.P,D9,12*%
%TO.N,Net-(D9-Pad12)*%
X157630000Y-130340000D03*
%TO.P,D9,4*%
%TO.N,/.31*%
X165250000Y-132880000D03*
%TO.P,D9,11*%
%TO.N,Net-(D9-Pad11)*%
X157630000Y-127800000D03*
%TO.P,D9,3*%
%TO.N,/.37*%
X165250000Y-135420000D03*
%TO.P,D9,10*%
%TO.N,Net-(D9-Pad10)*%
X157630000Y-125260000D03*
%TO.P,D9,2*%
%TO.N,GND*%
X165250000Y-137960000D03*
%TO.P,D9,9*%
%TO.N,Net-(D9-Pad9)*%
X157630000Y-122720000D03*
D17*
%TO.P,D9,1*%
%TO.N,Net-(D15-Pad6)*%
X165250000Y-140500000D03*
%TD*%
D16*
%TO.P,D8,14*%
%TO.N,+5V*%
X74380000Y-113000000D03*
%TO.P,D8,7*%
%TO.N,GND*%
X82000000Y-97760000D03*
%TO.P,D8,13*%
%TO.N,Net-(D10-Pad1)*%
X74380000Y-110460000D03*
%TO.P,D8,6*%
%TO.N,/.03*%
X82000000Y-100300000D03*
%TO.P,D8,12*%
%TO.N,Net-(D10-Pad1)*%
X74380000Y-107920000D03*
%TO.P,D8,5*%
X82000000Y-102840000D03*
%TO.P,D8,11*%
%TO.N,Net-(D8-Pad11)*%
X74380000Y-105380000D03*
%TO.P,D8,4*%
%TO.N,Net-(D10-Pad1)*%
X82000000Y-105380000D03*
%TO.P,D8,10*%
X74380000Y-102840000D03*
%TO.P,D8,3*%
%TO.N,/.08*%
X82000000Y-107920000D03*
%TO.P,D8,9*%
%TO.N,Net-(D10-Pad1)*%
X74380000Y-100300000D03*
%TO.P,D8,2*%
X82000000Y-110460000D03*
%TO.P,D8,8*%
%TO.N,/.04*%
X74380000Y-97760000D03*
D17*
%TO.P,D8,1*%
%TO.N,Net-(D10-Pad1)*%
X82000000Y-113000000D03*
%TD*%
D16*
%TO.P,D7,14*%
%TO.N,+5V*%
X130380000Y-65000000D03*
%TO.P,D7,7*%
%TO.N,GND*%
X138000000Y-49760000D03*
%TO.P,D7,13*%
%TO.N,+5V*%
X130380000Y-62460000D03*
%TO.P,D7,6*%
%TO.N,Net-(D11-Pad3)*%
X138000000Y-52300000D03*
%TO.P,D7,12*%
%TO.N,Net-(D1-Pad12)*%
X130380000Y-59920000D03*
%TO.P,D7,5*%
%TO.N,AB15*%
X138000000Y-54840000D03*
%TO.P,D7,11*%
%TO.N,Net-(B01-Pad1)*%
X130380000Y-57380000D03*
%TO.P,D7,4*%
%TO.N,Net-(D6-Pad16)*%
X138000000Y-57380000D03*
%TO.P,D7,10*%
%TO.N,/.25*%
X130380000Y-54840000D03*
%TO.P,D7,3*%
%TO.N,Net-(D11-Pad2)*%
X138000000Y-59920000D03*
%TO.P,D7,9*%
%TO.N,Net-(D15-Pad6)*%
X130380000Y-52300000D03*
%TO.P,D7,2*%
%TO.N,AB14*%
X138000000Y-62460000D03*
%TO.P,D7,8*%
%TO.N,/.33*%
X130380000Y-49760000D03*
D17*
%TO.P,D7,1*%
%TO.N,Net-(D6-Pad5)*%
X138000000Y-65000000D03*
%TD*%
D16*
%TO.P,D6,20*%
%TO.N,+5V*%
X173880000Y-103000000D03*
%TO.P,D6,10*%
%TO.N,GND*%
X181500000Y-80140000D03*
%TO.P,D6,19*%
%TO.N,/.36*%
X173880000Y-100460000D03*
%TO.P,D6,9*%
%TO.N,Net-(D6-Pad9)*%
X181500000Y-82680000D03*
%TO.P,D6,18*%
%TO.N,/.05*%
X173880000Y-97920000D03*
%TO.P,D6,8*%
%TO.N,/.03*%
X181500000Y-85220000D03*
%TO.P,D6,17*%
%TO.N,/.08*%
X173880000Y-95380000D03*
%TO.P,D6,7*%
%TO.N,/.06*%
X181500000Y-87760000D03*
%TO.P,D6,16*%
%TO.N,Net-(D6-Pad16)*%
X173880000Y-92840000D03*
%TO.P,D6,6*%
%TO.N,/.37*%
X181500000Y-90300000D03*
%TO.P,D6,15*%
%TO.N,Net-(D1-Pad12)*%
X173880000Y-90300000D03*
%TO.P,D6,5*%
%TO.N,Net-(D6-Pad5)*%
X181500000Y-92840000D03*
%TO.P,D6,14*%
%TO.N,/.01*%
X173880000Y-87760000D03*
%TO.P,D6,4*%
%TO.N,/.07*%
X181500000Y-95380000D03*
%TO.P,D6,13*%
%TO.N,/.02*%
X173880000Y-85220000D03*
%TO.P,D6,3*%
%TO.N,/.04*%
X181500000Y-97920000D03*
%TO.P,D6,12*%
%TO.N,Net-(D6-Pad12)*%
X173880000Y-82680000D03*
%TO.P,D6,2*%
%TO.N,Net-(D6-Pad2)*%
X181500000Y-100460000D03*
%TO.P,D6,11*%
%TO.N,Net-(D15-Pad3)*%
X173880000Y-80140000D03*
D17*
%TO.P,D6,1*%
%TO.N,GND*%
X181500000Y-103000000D03*
%TD*%
D16*
%TO.P,D5,20*%
%TO.N,+5V*%
X115380000Y-67500000D03*
%TO.P,D5,10*%
%TO.N,GND*%
X123000000Y-44640000D03*
%TO.P,D5,19*%
%TO.N,/.20*%
X115380000Y-64960000D03*
%TO.P,D5,9*%
%TO.N,Net-(D5-Pad9)*%
X123000000Y-47180000D03*
%TO.P,D5,18*%
%TO.N,AB11*%
X115380000Y-62420000D03*
%TO.P,D5,8*%
%TO.N,Net-(D5-Pad8)*%
X123000000Y-49720000D03*
%TO.P,D5,17*%
%TO.N,AB10*%
X115380000Y-59880000D03*
%TO.P,D5,7*%
%TO.N,AB12*%
X123000000Y-52260000D03*
%TO.P,D5,16*%
%TO.N,/.19*%
X115380000Y-57340000D03*
%TO.P,D5,6*%
%TO.N,/.21*%
X123000000Y-54800000D03*
%TO.P,D5,15*%
%TO.N,/.18*%
X115380000Y-54800000D03*
%TO.P,D5,5*%
%TO.N,Net-(D5-Pad5)*%
X123000000Y-57340000D03*
%TO.P,D5,14*%
%TO.N,AB9*%
X115380000Y-52260000D03*
%TO.P,D5,4*%
%TO.N,Net-(D5-Pad4)*%
X123000000Y-59880000D03*
%TO.P,D5,13*%
%TO.N,AB8*%
X115380000Y-49720000D03*
%TO.P,D5,3*%
%TO.N,Net-(D5-Pad3)*%
X123000000Y-62420000D03*
%TO.P,D5,12*%
%TO.N,/.17*%
X115380000Y-47180000D03*
%TO.P,D5,2*%
%TO.N,Net-(D5-Pad2)*%
X123000000Y-64960000D03*
%TO.P,D5,11*%
%TO.N,/.33*%
X115380000Y-44640000D03*
D17*
%TO.P,D5,1*%
%TO.N,GND*%
X123000000Y-67500000D03*
%TD*%
D16*
%TO.P,D4,20*%
%TO.N,+5V*%
X99880000Y-67500000D03*
%TO.P,D4,10*%
%TO.N,GND*%
X107500000Y-44640000D03*
%TO.P,D4,19*%
%TO.N,/.11*%
X99880000Y-64960000D03*
%TO.P,D4,9*%
%TO.N,/.15*%
X107500000Y-47180000D03*
%TO.P,D4,18*%
%TO.N,AB2*%
X99880000Y-62420000D03*
%TO.P,D4,8*%
%TO.N,AB6*%
X107500000Y-49720000D03*
%TO.P,D4,17*%
%TO.N,AB3*%
X99880000Y-59880000D03*
%TO.P,D4,7*%
%TO.N,AB7*%
X107500000Y-52260000D03*
%TO.P,D4,16*%
%TO.N,/.12*%
X99880000Y-57340000D03*
%TO.P,D4,6*%
%TO.N,/.16*%
X107500000Y-54800000D03*
%TO.P,D4,15*%
%TO.N,/.09*%
X99880000Y-54800000D03*
%TO.P,D4,5*%
%TO.N,/.13*%
X107500000Y-57340000D03*
%TO.P,D4,14*%
%TO.N,AB0*%
X99880000Y-52260000D03*
%TO.P,D4,4*%
%TO.N,AB4*%
X107500000Y-59880000D03*
%TO.P,D4,13*%
%TO.N,AB1*%
X99880000Y-49720000D03*
%TO.P,D4,3*%
%TO.N,AB5*%
X107500000Y-62420000D03*
%TO.P,D4,12*%
%TO.N,/.10*%
X99880000Y-47180000D03*
%TO.P,D4,2*%
%TO.N,/.14*%
X107500000Y-64960000D03*
%TO.P,D4,11*%
%TO.N,/.33*%
X99880000Y-44640000D03*
D17*
%TO.P,D4,1*%
%TO.N,GND*%
X107500000Y-67500000D03*
%TD*%
D16*
%TO.P,D3,14*%
%TO.N,+5V*%
X115130000Y-140500000D03*
%TO.P,D3,7*%
%TO.N,GND*%
X122750000Y-125260000D03*
%TO.P,D3,13*%
%TO.N,MEI*%
X115130000Y-137960000D03*
%TO.P,D3,6*%
%TO.N,/.24*%
X122750000Y-127800000D03*
%TO.P,D3,12*%
%TO.N,Net-(D1-Pad8)*%
X115130000Y-135420000D03*
%TO.P,D3,5*%
%TO.N,~RD*%
X122750000Y-130340000D03*
%TO.P,D3,11*%
%TO.N,MEO*%
X115130000Y-132880000D03*
%TO.P,D3,4*%
%TO.N,~RD*%
X122750000Y-132880000D03*
%TO.P,D3,10*%
%TO.N,N/C*%
X115130000Y-130340000D03*
%TO.P,D3,3*%
%TO.N,Net-(D14-Pad12)*%
X122750000Y-135420000D03*
%TO.P,D3,9*%
%TO.N,N/C*%
X115130000Y-127800000D03*
%TO.P,D3,2*%
%TO.N,MEI*%
X122750000Y-137960000D03*
%TO.P,D3,8*%
%TO.N,N/C*%
X115130000Y-125260000D03*
D17*
%TO.P,D3,1*%
%TO.N,Net-(D2-Pad12)*%
X122750000Y-140500000D03*
%TD*%
D16*
%TO.P,D2,14*%
%TO.N,+5V*%
X145380000Y-65000000D03*
%TO.P,D2,7*%
%TO.N,GND*%
X153000000Y-49760000D03*
%TO.P,D2,13*%
%TO.N,Net-(D1-Pad8)*%
X145380000Y-62460000D03*
%TO.P,D2,6*%
%TO.N,Net-(D1-Pad9)*%
X153000000Y-52300000D03*
%TO.P,D2,12*%
%TO.N,Net-(D2-Pad12)*%
X145380000Y-59920000D03*
%TO.P,D2,5*%
%TO.N,~MREQ*%
X153000000Y-54840000D03*
%TO.P,D2,11*%
%TO.N,TAKT*%
X145380000Y-57380000D03*
%TO.P,D2,4*%
%TO.N,/.25*%
X153000000Y-57380000D03*
%TO.P,D2,10*%
%TO.N,Net-(D15-Pad12)*%
X145380000Y-54840000D03*
%TO.P,D2,3*%
%TO.N,~IORQ*%
X153000000Y-59920000D03*
%TO.P,D2,9*%
%TO.N,Net-(D11-Pad8)*%
X145380000Y-52300000D03*
%TO.P,D2,2*%
%TO.N,/.23*%
X153000000Y-62460000D03*
%TO.P,D2,8*%
%TO.N,Net-(D15-Pad1)*%
X145380000Y-49760000D03*
D17*
%TO.P,D2,1*%
%TO.N,~WR*%
X153000000Y-65000000D03*
%TD*%
D18*
%TO.N,+5V*%
X77500000Y-141500000D03*
X80000000Y-141500000D03*
X173500000Y-113000000D03*
X84500000Y-113000000D03*
X125500000Y-113000000D03*
X146000000Y-113000000D03*
X166000000Y-113000000D03*
X176500000Y-139500000D03*
X138000000Y-140500000D03*
X113000000Y-140500000D03*
X140500000Y-65000000D03*
X92500000Y-35500000D03*
X92500000Y-33500020D03*
X104750000Y-112999991D03*
%TO.N,Net-(B01-Pad1)*%
X146000000Y-140500000D03*
X142774990Y-54982102D03*
%TO.N,GND*%
X97500000Y-60000000D03*
D19*
X161100000Y-32500000D03*
X161100000Y-35500000D03*
D18*
X110000000Y-44500000D03*
X113000000Y-133000000D03*
X113000000Y-135500000D03*
X138000000Y-133000000D03*
X138000000Y-135500000D03*
X153750000Y-123000000D03*
X176500000Y-119000000D03*
X176500000Y-132000000D03*
X176500000Y-134500000D03*
X77500000Y-97500000D03*
X77500000Y-77500000D03*
X107500000Y-77500000D03*
X128000000Y-77500000D03*
X148500000Y-77500000D03*
X140500000Y-57500000D03*
X140500000Y-60000000D03*
X113500000Y-33500000D03*
X141500000Y-38500000D03*
X141500000Y-46500000D03*
%TO.N,Net-(D1-Pad12)*%
X173500000Y-138000000D03*
X181249999Y-61250001D03*
%TO.N,/~write*%
X109000000Y-119000000D03*
X95500000Y-119000000D03*
X115500000Y-119000000D03*
X135500000Y-119000000D03*
X135500000Y-110500000D03*
X156000000Y-119000000D03*
X156500000Y-110000000D03*
X94750000Y-110500000D03*
X115250000Y-110500000D03*
%TO.N,Net-(D1-Pad9)*%
X102500000Y-62000000D03*
X108000000Y-127500000D03*
%TO.N,Net-(D1-Pad8)*%
X117750000Y-72500000D03*
X147000000Y-70000000D03*
X105500000Y-134000000D03*
%TO.N,Net-(D2-Pad12)*%
X119000000Y-75000000D03*
X144500000Y-72500000D03*
%TO.N,~MREQ*%
X143000000Y-33500000D03*
X148500000Y-55000000D03*
%TO.N,TAKT*%
X143042646Y-57462214D03*
X140512660Y-36487340D03*
%TO.N,/.25*%
X77250000Y-71000000D03*
X128000000Y-70000000D03*
%TO.N,Net-(D15-Pad12)*%
X146000000Y-135500000D03*
%TO.N,~IORQ*%
X148500000Y-60000000D03*
%TO.N,Net-(D11-Pad8)*%
X143000000Y-39500000D03*
%TO.N,~WR*%
X145500000Y-33500000D03*
X150500000Y-65000000D03*
%TO.N,MEI*%
X107750000Y-138000000D03*
%TO.N,~RD*%
X148000000Y-129000000D03*
%TO.N,MEO*%
X105000000Y-33000000D03*
X107500000Y-131749998D03*
%TO.N,/.11*%
X90000000Y-62250000D03*
X100000000Y-96500000D03*
%TO.N,/.15*%
X112250002Y-47000002D03*
%TO.N,AB6*%
X125500000Y-33500000D03*
%TO.N,AB2*%
X120499994Y-33500000D03*
%TO.N,/.12*%
X99000000Y-99000000D03*
%TO.N,/.16*%
X110500000Y-55000000D03*
%TO.N,/.13*%
X102500000Y-101500000D03*
%TO.N,AB0*%
X117750000Y-33500000D03*
%TO.N,AB4*%
X123000000Y-33500000D03*
%TO.N,/.10*%
X97500000Y-52250000D03*
X99000000Y-92500000D03*
%TO.N,/.14*%
X102500000Y-104000000D03*
%TO.N,/.20*%
X117800000Y-100300000D03*
%TO.N,AB10*%
X133000000Y-33500000D03*
%TO.N,AB12*%
X135500000Y-33500000D03*
%TO.N,/.19*%
X120000000Y-57500000D03*
X120000000Y-95000000D03*
%TO.N,/.21*%
X121500000Y-110500000D03*
%TO.N,/.18*%
X116500000Y-102500000D03*
%TO.N,AB8*%
X130500000Y-33500000D03*
%TO.N,/.17*%
X115500000Y-105000000D03*
%TO.N,Net-(D6-Pad9)*%
X178000000Y-101500000D03*
%TO.N,Net-(D6-Pad16)*%
X179000000Y-58750000D03*
%TO.N,/.37*%
X179000000Y-133000000D03*
%TO.N,Net-(D6-Pad5)*%
X181500000Y-65000000D03*
%TO.N,Net-(D15-Pad3)*%
X177500000Y-128000000D03*
X177250000Y-80250000D03*
%TO.N,Net-(D11-Pad3)*%
X141000000Y-140500000D03*
%TO.N,Net-(D11-Pad2)*%
X133000000Y-140500000D03*
%TO.N,Net-(D15-Pad6)*%
X153250000Y-42250000D03*
X162250000Y-129250000D03*
X135500000Y-44500000D03*
%TO.N,AB14*%
X138000000Y-33500000D03*
X135500000Y-62500000D03*
%TO.N,/.28*%
X156000000Y-124000000D03*
X92750000Y-120000000D03*
%TO.N,/.29*%
X113000000Y-120000000D03*
%TO.N,/.30*%
X139500000Y-91000000D03*
X140500000Y-135500000D03*
%TO.N,AB13*%
X120500000Y-126500000D03*
%TO.N,~MAD*%
X99750000Y-33250000D03*
%TO.N,/.27*%
X130500000Y-135500000D03*
%TO.N,Net-(D14-Pad2)*%
X133250000Y-127750000D03*
X140500000Y-126500000D03*
%TO.N,/.35*%
X90250000Y-117750000D03*
X130500000Y-117500000D03*
X111250000Y-117750000D03*
X152000000Y-117500000D03*
%TO.N,/.03*%
X160000000Y-83500000D03*
X90000000Y-82500000D03*
X89750000Y-97500000D03*
%TO.N,/.02*%
X157000000Y-86500000D03*
%TO.N,/.01*%
X158500000Y-89000000D03*
X90000000Y-88750000D03*
%TO.N,/.09*%
X99000000Y-90000000D03*
%TO.N,/.08*%
X163500000Y-90000000D03*
%TO.N,/.07*%
X171000000Y-86500000D03*
%TO.N,/.06*%
X162000000Y-85000000D03*
%TO.N,/.05*%
X163500000Y-82500000D03*
X157000000Y-99000000D03*
%TO.N,/.04*%
X159500000Y-80000000D03*
X85000000Y-97500000D03*
X157500000Y-96500000D03*
%TO.N,DB1*%
X148000000Y-33500000D03*
%TO.N,DB3*%
X150500000Y-33500000D03*
%TO.N,DB5*%
X153000000Y-33500000D03*
%TO.N,DB7*%
X155500000Y-33500000D03*
%TO.N,IE-Kette*%
X140500000Y-31000000D03*
%TD*%
D20*
%TO.N,+5V*%
X127880000Y-130340000D02*
X128340000Y-130340000D01*
X128340000Y-130340000D02*
X131250000Y-133250000D01*
X131250000Y-133250000D02*
X131250000Y-136750000D01*
X130040000Y-137960000D02*
X127880000Y-137960000D01*
X131250000Y-136750000D02*
X130040000Y-137960000D01*
X135500000Y-132880000D02*
X135880000Y-132880000D01*
X137025010Y-134025010D02*
X137025010Y-138974990D01*
X135880000Y-132880000D02*
X137025010Y-134025010D01*
X137025010Y-138974990D02*
X135500000Y-140500000D01*
X130380000Y-62460000D02*
X130380000Y-65000000D01*
D21*
X173500000Y-103380000D02*
X173880000Y-103000000D01*
X173500000Y-113000000D02*
X173500000Y-103380000D01*
X125500000Y-113000000D02*
X125500000Y-75000000D01*
X146000000Y-113000000D02*
X146000000Y-75000000D01*
X166000000Y-113000000D02*
X166000000Y-75000000D01*
X77500000Y-141500000D02*
X77500000Y-143000000D01*
X176500000Y-143000000D02*
X176500000Y-139500000D01*
X157750000Y-140500000D02*
X157750000Y-142880000D01*
X158500000Y-143000000D02*
X176500000Y-143000000D01*
X153750000Y-140500000D02*
X153750000Y-143000000D01*
X153500000Y-143000000D02*
X158500000Y-143000000D01*
X143380000Y-140500000D02*
X143380000Y-142880000D01*
X143500000Y-143000000D02*
X153500000Y-143000000D01*
X143380000Y-142880000D02*
X143500000Y-143000000D01*
X138000000Y-143000000D02*
X138000000Y-140500000D01*
X138000000Y-143000000D02*
X143500000Y-143000000D01*
X135500000Y-140500000D02*
X135500000Y-143000000D01*
X135500000Y-143000000D02*
X138000000Y-143000000D01*
X127880000Y-142620000D02*
X127500000Y-143000000D01*
X127500000Y-143000000D02*
X135500000Y-143000000D01*
X127880000Y-140500000D02*
X127880000Y-142620000D01*
X125250000Y-140500000D02*
X125250000Y-143000000D01*
X125500000Y-143000000D02*
X127500000Y-143000000D01*
X115380000Y-142880000D02*
X115500000Y-143000000D01*
X115500000Y-143000000D02*
X125500000Y-143000000D01*
X113000000Y-143000000D02*
X113000000Y-140500000D01*
X113000000Y-143000000D02*
X115500000Y-143000000D01*
X102880000Y-142880000D02*
X103000000Y-143000000D01*
X102880000Y-140500000D02*
X102880000Y-142880000D01*
X103000000Y-143000000D02*
X113000000Y-143000000D01*
X100000000Y-140500000D02*
X100000000Y-143000000D01*
X100000000Y-143000000D02*
X103000000Y-143000000D01*
X90000000Y-143000000D02*
X100000000Y-143000000D01*
X80000000Y-141500000D02*
X80000000Y-143000000D01*
X80000000Y-143000000D02*
X90000000Y-143000000D01*
X77500000Y-143000000D02*
X80000000Y-143000000D01*
D20*
X127880000Y-137960000D02*
X127880000Y-140500000D01*
D21*
X92500000Y-35500000D02*
X92500000Y-33500020D01*
X92300000Y-33300020D02*
X92500000Y-33500020D01*
X92300000Y-26000000D02*
X92300000Y-33300020D01*
X89880000Y-142880000D02*
X90000000Y-143000000D01*
X89750000Y-140500000D02*
X89750000Y-142880000D01*
X115130000Y-142750000D02*
X115000000Y-142880000D01*
X115130000Y-140630000D02*
X115130000Y-142750000D01*
X115000000Y-140500000D02*
X115130000Y-140630000D01*
X105000000Y-75000000D02*
X104750000Y-75250000D01*
X104750000Y-75250000D02*
X104750000Y-112750000D01*
D20*
%TO.N,Net-(B01-Pad1)*%
X146000000Y-140500000D02*
X144905010Y-139405010D01*
X144905010Y-139405010D02*
X144905010Y-124405010D01*
X144905010Y-124405010D02*
X142000000Y-121500000D01*
X142000000Y-121500000D02*
X142000000Y-55757092D01*
X142000000Y-55757092D02*
X142774990Y-54982102D01*
%TO.N,GND*%
X96525010Y-51285010D02*
X96525010Y-53474990D01*
X95000000Y-49760000D02*
X96525010Y-51285010D01*
X97500000Y-54449980D02*
X97500000Y-60000000D01*
X96525010Y-53474990D02*
X97500000Y-54449980D01*
D21*
X100000000Y-135500000D02*
X100000000Y-133000000D01*
X110500000Y-125260000D02*
X112760000Y-125260000D01*
X113000000Y-125500000D02*
X113000000Y-133000000D01*
X112760000Y-125260000D02*
X113000000Y-125500000D01*
X113000000Y-133000000D02*
X113000000Y-135500000D01*
X122740000Y-125250000D02*
X125000000Y-125250000D01*
X125250000Y-125500000D02*
X125250000Y-133000000D01*
X125010000Y-125260000D02*
X125250000Y-125500000D01*
X125250000Y-133000000D02*
X125250000Y-135500000D01*
X135500000Y-125260000D02*
X136260000Y-125260000D01*
X136260000Y-125260000D02*
X138000000Y-127000000D01*
X138000000Y-127000000D02*
X138000000Y-133000000D01*
X138000000Y-133000000D02*
X138000000Y-135500000D01*
X153750000Y-123000000D02*
X153750000Y-133000000D01*
X153750000Y-133000000D02*
X153750000Y-135500000D01*
X153719990Y-123000000D02*
X155500000Y-121219990D01*
X176500000Y-119000000D02*
X175000000Y-120500000D01*
X175000000Y-120500000D02*
X175000000Y-130500000D01*
X175000000Y-130500000D02*
X176500000Y-132000000D01*
X176500000Y-132000000D02*
X176500000Y-134500000D01*
X77500000Y-97500000D02*
X77500000Y-77500000D01*
X82000000Y-77260000D02*
X82760000Y-77260000D01*
X85000000Y-79500000D02*
X85000000Y-85000000D01*
X82760000Y-77260000D02*
X85000000Y-79500000D01*
X85000000Y-85000000D02*
X85000000Y-87500000D01*
X148500000Y-77500000D02*
X148500000Y-79980000D01*
X128000000Y-77500000D02*
X128000000Y-79980000D01*
X107500000Y-77500000D02*
X107500000Y-79980000D01*
X110250000Y-62500000D02*
X110250000Y-60000000D01*
X155750000Y-50000000D02*
X155750000Y-57500000D01*
X155510000Y-49760000D02*
X155750000Y-50000000D01*
X155750000Y-57500000D02*
X155750000Y-60000000D01*
X138000000Y-49760000D02*
X140500000Y-52260000D01*
X140500000Y-52260000D02*
X140500000Y-57500000D01*
X140500000Y-57500000D02*
X140500000Y-60000000D01*
D20*
X112300000Y-32300000D02*
X113500000Y-33500000D01*
X112300000Y-26000000D02*
X112300000Y-32300000D01*
X141500000Y-38500000D02*
X141500000Y-46500000D01*
D21*
X84750000Y-57500000D02*
X84750000Y-60000000D01*
X161100000Y-32500000D02*
X161100000Y-35500000D01*
X100000000Y-125500000D02*
X100000000Y-133000000D01*
X99760000Y-125260000D02*
X100000000Y-125500000D01*
X97250000Y-125260000D02*
X99760000Y-125260000D01*
X84750000Y-50750000D02*
X84750000Y-57250000D01*
X84750000Y-57250000D02*
X84500000Y-57500000D01*
X83760000Y-49760000D02*
X84750000Y-50750000D01*
X82000000Y-49760000D02*
X83760000Y-49760000D01*
D20*
X110000000Y-52500000D02*
X110000000Y-44500000D01*
X109025010Y-53474990D02*
X110000000Y-52500000D01*
X109025010Y-56025010D02*
X109025010Y-53474990D01*
X110250000Y-57250000D02*
X109025010Y-56025010D01*
X110250000Y-59750000D02*
X110250000Y-57250000D01*
X110000000Y-60000000D02*
X110250000Y-59750000D01*
D21*
X124640000Y-44640000D02*
X125750000Y-45750000D01*
X123000000Y-44640000D02*
X124640000Y-44640000D01*
X125750000Y-62250000D02*
X125500000Y-62500000D01*
X125750000Y-45750000D02*
X125750000Y-62250000D01*
X153000000Y-49760000D02*
X155510000Y-49760000D01*
X154984995Y-121734995D02*
X155500000Y-121219990D01*
X163469990Y-121219990D02*
X164970000Y-122720000D01*
X155500000Y-121219990D02*
X163469990Y-121219990D01*
X159800000Y-31200000D02*
X159800000Y-26000000D01*
X161100000Y-32500000D02*
X159800000Y-31200000D01*
X162300000Y-31300000D02*
X161100000Y-32500000D01*
X162300000Y-26000000D02*
X162300000Y-31300000D01*
D20*
%TO.N,Net-(D1-Pad12)*%
X173500000Y-117949998D02*
X173500000Y-138000000D01*
X174500000Y-116949998D02*
X173500000Y-117949998D01*
X174500000Y-105500000D02*
X174500000Y-116949998D01*
X175500000Y-104500000D02*
X174500000Y-105500000D01*
X175500000Y-91920000D02*
X175500000Y-104500000D01*
X173880000Y-90300000D02*
X175500000Y-91920000D01*
X173880000Y-90300000D02*
X175750000Y-88430000D01*
X175750000Y-88430000D02*
X175750000Y-66750000D01*
X175750000Y-66750000D02*
X181249999Y-61250001D01*
%TO.N,/~write*%
X110500000Y-127800000D02*
X109550000Y-127800000D01*
X109550000Y-127800000D02*
X108750000Y-127000000D01*
X108750000Y-119250000D02*
X109000000Y-119000000D01*
X108750000Y-127000000D02*
X108750000Y-119250000D01*
X135500000Y-119000000D02*
X135500000Y-110500000D01*
X156000000Y-110500000D02*
X156500000Y-110000000D01*
X156000000Y-119000000D02*
X156000000Y-110500000D01*
X95500000Y-111250000D02*
X94750000Y-110500000D01*
X95500000Y-119000000D02*
X95500000Y-111250000D01*
X115500000Y-119000000D02*
X115500000Y-110750000D01*
X115500000Y-110750000D02*
X115250000Y-110500000D01*
%TO.N,/.23*%
X110500000Y-130340000D02*
X110500000Y-132880000D01*
X110500000Y-137960000D02*
X109960000Y-137960000D01*
X108974990Y-134405010D02*
X110500000Y-132880000D01*
X108974990Y-136974990D02*
X108974990Y-134405010D01*
X109960000Y-137960000D02*
X108974990Y-136974990D01*
X110500000Y-137960000D02*
X110500000Y-140500000D01*
X154525001Y-63985001D02*
X153000000Y-62460000D01*
X154525001Y-66224999D02*
X154525001Y-63985001D01*
X152250000Y-68500000D02*
X154525001Y-66224999D01*
X152250000Y-76000000D02*
X152250000Y-68500000D01*
X151000000Y-77250000D02*
X152250000Y-76000000D01*
X151000000Y-115000000D02*
X151000000Y-77250000D01*
X149250000Y-116750000D02*
X151000000Y-115000000D01*
X149250000Y-136250000D02*
X149250000Y-116750000D01*
X150960000Y-137960000D02*
X149250000Y-136250000D01*
X151000000Y-137960000D02*
X150960000Y-137960000D01*
%TO.N,Net-(D1-Pad9)*%
X108000000Y-123000000D02*
X108000000Y-127500000D01*
X100000000Y-100500000D02*
X100000000Y-115000000D01*
X102250000Y-98250000D02*
X100000000Y-100500000D01*
X100000000Y-115000000D02*
X108000000Y-123000000D01*
X102250000Y-62250000D02*
X102250000Y-98250000D01*
X102500000Y-62000000D02*
X102250000Y-62250000D01*
%TO.N,Net-(D1-Pad8)*%
X145380000Y-62460000D02*
X145460000Y-62460000D01*
X147000000Y-64000000D02*
X147000000Y-70000000D01*
X145460000Y-62460000D02*
X147000000Y-64000000D01*
X119250000Y-98500000D02*
X117750000Y-97000000D01*
X117750000Y-120500000D02*
X119250000Y-119000000D01*
X117750000Y-97000000D02*
X117750000Y-72500000D01*
X119250000Y-119000000D02*
X119250000Y-98500000D01*
X117750000Y-133375000D02*
X117750000Y-120500000D01*
X115705000Y-135420000D02*
X117750000Y-133375000D01*
X115380000Y-135420000D02*
X115705000Y-135420000D01*
X104750000Y-133250000D02*
X105500000Y-134000000D01*
X104750000Y-126750000D02*
X104750000Y-133250000D01*
X103260000Y-125260000D02*
X104750000Y-126750000D01*
X102880000Y-125260000D02*
X103260000Y-125260000D01*
%TO.N,Net-(D2-Pad12)*%
X119000000Y-96250000D02*
X119000000Y-75000000D01*
X119250000Y-120250000D02*
X120500000Y-119000000D01*
X119250000Y-137250000D02*
X119250000Y-120250000D01*
X122500000Y-140500000D02*
X119250000Y-137250000D01*
X120500000Y-97750000D02*
X119000000Y-96250000D01*
X120500000Y-119000000D02*
X120500000Y-97750000D01*
X123000000Y-140500000D02*
X122500000Y-140500000D01*
X143500000Y-71500000D02*
X144500000Y-72500000D01*
X143500000Y-61800000D02*
X143500000Y-71500000D01*
X145380000Y-59920000D02*
X143500000Y-61800000D01*
%TO.N,~MREQ*%
X143000000Y-33500000D02*
X143000000Y-37500000D01*
X143000000Y-37500000D02*
X148000000Y-42500000D01*
X148500000Y-43000000D02*
X148500000Y-55000000D01*
X148000000Y-42500000D02*
X148500000Y-43000000D01*
%TO.N,TAKT*%
X143042646Y-57462214D02*
X143042646Y-56030358D01*
X143042646Y-56030358D02*
X143725002Y-55348002D01*
X140512660Y-50012660D02*
X140512660Y-36487340D01*
X143725002Y-55348002D02*
X143725002Y-53225002D01*
X143725002Y-53225002D02*
X140512660Y-50012660D01*
%TO.N,/.25*%
X74380000Y-57380000D02*
X74880000Y-57380000D01*
X77250000Y-59750000D02*
X77250000Y-71000000D01*
X74880000Y-57380000D02*
X77250000Y-59750000D01*
X130380000Y-54840000D02*
X130160000Y-54840000D01*
X128000000Y-57000000D02*
X128000000Y-70000000D01*
X130160000Y-54840000D02*
X128000000Y-57000000D01*
%TO.N,Net-(D15-Pad12)*%
X143380000Y-137960000D02*
X143380000Y-135420000D01*
X146000000Y-124000000D02*
X146000000Y-135500000D01*
X142750000Y-120750000D02*
X146000000Y-124000000D01*
X142750000Y-60250000D02*
X142750000Y-120750000D01*
X143767647Y-59232353D02*
X142750000Y-60250000D01*
X143767647Y-56452353D02*
X143767647Y-59232353D01*
X145380000Y-54840000D02*
X143767647Y-56452353D01*
%TO.N,~IORQ*%
X149500000Y-59000000D02*
X148500000Y-60000000D01*
X149500000Y-42000000D02*
X149500000Y-59000000D01*
X144500000Y-37000000D02*
X149500000Y-42000000D01*
X144500000Y-32000000D02*
X144500000Y-37000000D01*
X142300000Y-29800000D02*
X144500000Y-32000000D01*
X142300000Y-26000000D02*
X142300000Y-29800000D01*
%TO.N,Net-(D11-Pad8)*%
X145300000Y-52300000D02*
X145380000Y-52300000D01*
X143000000Y-50000000D02*
X145300000Y-52300000D01*
X143000000Y-39500000D02*
X143000000Y-50000000D01*
X89880000Y-125260000D02*
X89630000Y-125260000D01*
X79500000Y-54500000D02*
X74760000Y-49760000D01*
X79500000Y-114000000D02*
X79500000Y-54500000D01*
X89630000Y-124130000D02*
X79500000Y-114000000D01*
X74760000Y-49760000D02*
X74380000Y-49760000D01*
X89630000Y-125260000D02*
X89630000Y-124130000D01*
%TO.N,Net-(D15-Pad1)*%
X147250000Y-51630000D02*
X145380000Y-49760000D01*
X148250000Y-62500000D02*
X147250000Y-61500000D01*
X148250000Y-74750000D02*
X148250000Y-62500000D01*
X147250000Y-61500000D02*
X147250000Y-51630000D01*
X146974999Y-76025001D02*
X148250000Y-74750000D01*
X146974999Y-131724999D02*
X146974999Y-76025001D01*
X148250000Y-133000000D02*
X146974999Y-131724999D01*
X148250000Y-137750000D02*
X148250000Y-133000000D01*
X151000000Y-140500000D02*
X148250000Y-137750000D01*
%TO.N,~WR*%
X145500000Y-33500000D02*
X145500000Y-37000000D01*
X145500000Y-37000000D02*
X147500000Y-39000000D01*
X147500000Y-39000000D02*
X150500000Y-42000000D01*
X150500000Y-42000000D02*
X150500000Y-65000000D01*
%TO.N,MEI*%
X105500000Y-132000000D02*
X107750000Y-134250000D01*
X105500000Y-124250000D02*
X105500000Y-132000000D01*
X107750000Y-134250000D02*
X107750000Y-138000000D01*
X97750000Y-102000000D02*
X97750000Y-116500000D01*
X95750000Y-78000000D02*
X95750000Y-100000000D01*
X91750000Y-74000000D02*
X95750000Y-78000000D01*
X91750000Y-48635002D02*
X91750000Y-74000000D01*
X97750000Y-116500000D02*
X105500000Y-124250000D01*
X102000000Y-33514998D02*
X102000000Y-38385002D01*
X102000000Y-38385002D02*
X91750000Y-48635002D01*
X104800000Y-30714998D02*
X102000000Y-33514998D01*
X95750000Y-100000000D02*
X97750000Y-102000000D01*
X104800000Y-26000000D02*
X104800000Y-30714998D01*
%TO.N,~RD*%
X122750000Y-132630000D02*
X123000000Y-132880000D01*
X122750000Y-130590000D02*
X122750000Y-132630000D01*
X123000000Y-130340000D02*
X122750000Y-130590000D01*
X150200000Y-79688996D02*
X150200000Y-113800000D01*
X148000000Y-116000000D02*
X148000000Y-129000000D01*
X149500000Y-78988996D02*
X150200000Y-79688996D01*
X151250000Y-66699980D02*
X149500000Y-68449980D01*
X151250000Y-42750000D02*
X151250000Y-66699980D01*
X152000000Y-42000000D02*
X151250000Y-42750000D01*
X149500000Y-68449980D02*
X149500000Y-78988996D01*
X147000000Y-37000000D02*
X152000000Y-42000000D01*
X150200000Y-113800000D02*
X148000000Y-116000000D01*
X147000000Y-32000000D02*
X147000000Y-37000000D01*
X144800000Y-29800000D02*
X147000000Y-32000000D01*
X144800000Y-26000000D02*
X144800000Y-29800000D01*
%TO.N,MEO*%
X106250000Y-130499998D02*
X107500000Y-131749998D01*
X106250000Y-123750000D02*
X106250000Y-130499998D01*
X99000000Y-116500000D02*
X106250000Y-123750000D01*
X99000000Y-101500000D02*
X99000000Y-116500000D01*
X96500000Y-99000000D02*
X99000000Y-101500000D01*
X96500000Y-76500000D02*
X96500000Y-99000000D01*
X92500000Y-72500000D02*
X96500000Y-76500000D01*
X92500000Y-48985002D02*
X92500000Y-72500000D01*
X105000000Y-36485002D02*
X92500000Y-48985002D01*
X105000000Y-33000000D02*
X105000000Y-36485002D01*
%TO.N,/.11*%
X87670000Y-59920000D02*
X90000000Y-62250000D01*
X87380000Y-59920000D02*
X87670000Y-59920000D01*
X101500000Y-95000000D02*
X100000000Y-96500000D01*
X101500000Y-66000000D02*
X101500000Y-95000000D01*
X100460000Y-64960000D02*
X101500000Y-66000000D01*
X99880000Y-64960000D02*
X100460000Y-64960000D01*
%TO.N,/.15*%
X109250000Y-103630000D02*
X109250000Y-76250000D01*
X108750000Y-73750000D02*
X112250002Y-70249998D01*
X107500000Y-105380000D02*
X109250000Y-103630000D01*
X109250000Y-76250000D02*
X108750000Y-75750000D01*
X112250002Y-70249998D02*
X112250002Y-47000002D01*
X108750000Y-75750000D02*
X108750000Y-73750000D01*
%TO.N,AB3*%
X100120000Y-59880000D02*
X99880000Y-59880000D01*
X103250000Y-56750000D02*
X100120000Y-59880000D01*
X103250000Y-41250000D02*
X103250000Y-56750000D01*
X107500000Y-37000000D02*
X103250000Y-41250000D01*
X116500000Y-37000000D02*
X107500000Y-37000000D01*
X119000000Y-32000000D02*
X119000000Y-34500000D01*
X119000000Y-34500000D02*
X116500000Y-37000000D01*
X119800000Y-31200000D02*
X119000000Y-32000000D01*
X119800000Y-26000000D02*
X119800000Y-31200000D01*
%TO.N,AB6*%
X107500000Y-49720000D02*
X107780000Y-49720000D01*
X109025010Y-48474990D02*
X109025010Y-43974990D01*
X107780000Y-49720000D02*
X109025010Y-48474990D01*
X109025010Y-43974990D02*
X109500000Y-43500000D01*
X109500000Y-43500000D02*
X116500000Y-43500000D01*
X125500000Y-34500000D02*
X125500000Y-33500000D01*
X116500000Y-43500000D02*
X125500000Y-34500000D01*
%TO.N,AB2*%
X99880000Y-62420000D02*
X104000000Y-58300000D01*
X104000000Y-58300000D02*
X104000000Y-41500000D01*
X104000000Y-41500000D02*
X107000000Y-38500000D01*
X107000000Y-38500000D02*
X116065679Y-38500000D01*
X116065679Y-38500000D02*
X120499994Y-34065685D01*
X120499994Y-34065685D02*
X120499994Y-33500000D01*
%TO.N,AB7*%
X105750000Y-43750000D02*
X105750000Y-50510000D01*
X107500000Y-42000000D02*
X105750000Y-43750000D01*
X116500000Y-42000000D02*
X107500000Y-42000000D01*
X124000000Y-34500000D02*
X116500000Y-42000000D01*
X124000000Y-32000000D02*
X124000000Y-34500000D01*
X124800000Y-31200000D02*
X124000000Y-32000000D01*
X105750000Y-50510000D02*
X107500000Y-52260000D01*
X124800000Y-26000000D02*
X124800000Y-31200000D01*
%TO.N,/.12*%
X99000000Y-95000000D02*
X99000000Y-99000000D01*
X100000000Y-94000000D02*
X99000000Y-95000000D01*
X98225002Y-70975002D02*
X100000000Y-72750000D01*
X100000000Y-72750000D02*
X100000000Y-94000000D01*
X98225002Y-58994998D02*
X98225002Y-70975002D01*
X99880000Y-57340000D02*
X98225002Y-58994998D01*
%TO.N,/.16*%
X111625001Y-56125001D02*
X110500000Y-55000000D01*
X111625001Y-68040001D02*
X111625001Y-56125001D01*
X106500000Y-75707501D02*
X106500000Y-73165002D01*
X105750000Y-76457501D02*
X106500000Y-75707501D01*
X105750000Y-106250000D02*
X105750000Y-76457501D01*
X107420000Y-107920000D02*
X105750000Y-106250000D01*
X106500000Y-73165002D02*
X111625001Y-68040001D01*
X107500000Y-107920000D02*
X107420000Y-107920000D01*
%TO.N,/.13*%
X103750000Y-100250000D02*
X102500000Y-101500000D01*
X103750000Y-73750000D02*
X103750000Y-100250000D01*
X109025010Y-68474990D02*
X103750000Y-73750000D01*
X109025010Y-58525010D02*
X109025010Y-68474990D01*
X107840000Y-57340000D02*
X109025010Y-58525010D01*
X107500000Y-57340000D02*
X107840000Y-57340000D01*
%TO.N,AB0*%
X99880000Y-52260000D02*
X99990000Y-52260000D01*
X99990000Y-52260000D02*
X102500000Y-49750000D01*
X102500000Y-49750000D02*
X102500000Y-47648996D01*
X102500000Y-47648996D02*
X102500000Y-41000000D01*
X102500000Y-41000000D02*
X107500000Y-36000000D01*
X115250000Y-36000000D02*
X117750000Y-33500000D01*
X107500000Y-36000000D02*
X115250000Y-36000000D01*
%TO.N,AB4*%
X107500000Y-59880000D02*
X107380000Y-59880000D01*
X107380000Y-59880000D02*
X105000000Y-57500000D01*
X105000000Y-57500000D02*
X105000000Y-43000000D01*
X105000000Y-43000000D02*
X107000000Y-41000000D01*
X107000000Y-41000000D02*
X116000000Y-41000000D01*
X123000000Y-34000000D02*
X123000000Y-33500000D01*
X116000000Y-41000000D02*
X123000000Y-34000000D01*
%TO.N,AB1*%
X101750000Y-47850000D02*
X99880000Y-49720000D01*
X108000000Y-34500000D02*
X101750000Y-40750000D01*
X114000000Y-34500000D02*
X108000000Y-34500000D01*
X117300000Y-31200000D02*
X114000000Y-34500000D01*
X101750000Y-40750000D02*
X101750000Y-47850000D01*
X117300000Y-26000000D02*
X117300000Y-31200000D01*
%TO.N,AB5*%
X104500000Y-42000000D02*
X104500000Y-59420000D01*
X106500000Y-40000000D02*
X104500000Y-42000000D01*
X116000000Y-40000000D02*
X106500000Y-40000000D01*
X104500000Y-59420000D02*
X107500000Y-62420000D01*
X121474990Y-32025010D02*
X121474990Y-34525010D01*
X122300000Y-31200000D02*
X121474990Y-32025010D01*
X121474990Y-34525010D02*
X116000000Y-40000000D01*
X122300000Y-26000000D02*
X122300000Y-31200000D01*
%TO.N,/.10*%
X99880000Y-47180000D02*
X99880000Y-47370000D01*
X97500000Y-49750000D02*
X97500000Y-52250000D01*
X99880000Y-47370000D02*
X97500000Y-49750000D01*
X97500000Y-91000000D02*
X99000000Y-92500000D01*
X97500000Y-75250000D02*
X97500000Y-91000000D01*
X93250000Y-71000000D02*
X97500000Y-75250000D01*
X93250000Y-53750000D02*
X93250000Y-71000000D01*
X94700000Y-52300000D02*
X93250000Y-53750000D01*
X95000000Y-52300000D02*
X94700000Y-52300000D01*
%TO.N,/.14*%
X101500000Y-103000000D02*
X102500000Y-104000000D01*
X101500000Y-100500000D02*
X101500000Y-103000000D01*
X103000000Y-99000000D02*
X101500000Y-100500000D01*
X103000000Y-69500000D02*
X103000000Y-99000000D01*
X107500000Y-65000000D02*
X103000000Y-69500000D01*
X107500000Y-64960000D02*
X107500000Y-65000000D01*
%TO.N,/.20*%
X115380000Y-64960000D02*
X115960000Y-64960000D01*
X116905010Y-65905010D02*
X116905010Y-68594990D01*
X115960000Y-64960000D02*
X116905010Y-65905010D01*
X116905010Y-68594990D02*
X116500000Y-69000000D01*
X116500000Y-69000000D02*
X116500000Y-97500000D01*
X117800000Y-98800000D02*
X117800000Y-100300000D01*
X116500000Y-97500000D02*
X117800000Y-98800000D01*
%TO.N,AB11*%
X132300000Y-26000000D02*
X132300000Y-30300000D01*
X132300000Y-30300000D02*
X134000000Y-32000000D01*
X134000000Y-32000000D02*
X134000000Y-38500000D01*
X134000000Y-38500000D02*
X131000000Y-41500000D01*
X131000000Y-41500000D02*
X123000000Y-41500000D01*
X123000000Y-41500000D02*
X120000000Y-44500000D01*
X120000000Y-44500000D02*
X120000000Y-50000000D01*
X120000000Y-50000000D02*
X118000000Y-52000000D01*
X118000000Y-59800000D02*
X115380000Y-62420000D01*
X118000000Y-52000000D02*
X118000000Y-59800000D01*
%TO.N,AB10*%
X115380000Y-59880000D02*
X117000000Y-58260000D01*
X117000000Y-58260000D02*
X117000000Y-52000000D01*
X117000000Y-52000000D02*
X119000000Y-50000000D01*
X119000000Y-50000000D02*
X119000000Y-44500000D01*
X119000000Y-44500000D02*
X122500000Y-41000000D01*
X122500000Y-41000000D02*
X130000000Y-41000000D01*
X133000000Y-38000000D02*
X133000000Y-33500000D01*
X130000000Y-41000000D02*
X133000000Y-38000000D01*
%TO.N,AB12*%
X131000000Y-42500000D02*
X135500000Y-38000000D01*
X123148996Y-42500000D02*
X131000000Y-42500000D01*
X121000000Y-44648996D02*
X123148996Y-42500000D01*
X121000000Y-50500000D02*
X121000000Y-44648996D01*
X135500000Y-38000000D02*
X135500000Y-33500000D01*
X122760000Y-52260000D02*
X121000000Y-50500000D01*
X123000000Y-52260000D02*
X122760000Y-52260000D01*
%TO.N,/.19*%
X120000000Y-57500000D02*
X120000000Y-95000000D01*
%TO.N,/.21*%
X121100001Y-110100001D02*
X121500000Y-110500000D01*
X123000000Y-54800000D02*
X121100000Y-56700000D01*
X121100000Y-56700000D02*
X121100001Y-110100001D01*
%TO.N,/.18*%
X88525001Y-118525001D02*
X88525001Y-106474999D01*
X92750000Y-122750000D02*
X88525001Y-118525001D01*
X88525001Y-106474999D02*
X92160000Y-102840000D01*
X92750000Y-130250000D02*
X92750000Y-122750000D01*
X92160000Y-102840000D02*
X92260000Y-102840000D01*
X90120000Y-132880000D02*
X92750000Y-130250000D01*
X89630000Y-132880000D02*
X90120000Y-132880000D01*
X116500000Y-99000000D02*
X116500000Y-102500000D01*
X115500000Y-98000000D02*
X116500000Y-99000000D01*
X113500000Y-68000000D02*
X115500000Y-70000000D01*
X115500000Y-70000000D02*
X115500000Y-98000000D01*
X113500000Y-56500000D02*
X113500000Y-68000000D01*
X115200000Y-54800000D02*
X113500000Y-56500000D01*
X115380000Y-54800000D02*
X115200000Y-54800000D01*
%TO.N,AB9*%
X118000000Y-49640000D02*
X115380000Y-52260000D01*
X118000000Y-44500000D02*
X118000000Y-49640000D01*
X129274999Y-39260003D02*
X128510001Y-40025001D01*
X129274999Y-36725001D02*
X129274999Y-39260003D01*
X122474999Y-40025001D02*
X118000000Y-44500000D01*
X131500000Y-32000000D02*
X131500000Y-34500000D01*
X129800000Y-30300000D02*
X131500000Y-32000000D01*
X128510001Y-40025001D02*
X122474999Y-40025001D01*
X131500000Y-34500000D02*
X129274999Y-36725001D01*
X129800000Y-26000000D02*
X129800000Y-30300000D01*
%TO.N,AB8*%
X127500000Y-33500000D02*
X130500000Y-33500000D01*
X117250000Y-43750000D02*
X127500000Y-33500000D01*
X117250000Y-47750000D02*
X117250000Y-43750000D01*
X115380000Y-49620000D02*
X117250000Y-47750000D01*
X115380000Y-49720000D02*
X115380000Y-49620000D01*
%TO.N,/.17*%
X115500000Y-100500000D02*
X115500000Y-105000000D01*
X115000000Y-100000000D02*
X115500000Y-100500000D01*
X114285010Y-92785010D02*
X115000000Y-93500000D01*
X114285010Y-70285010D02*
X114285010Y-92785010D01*
X112750000Y-68750000D02*
X114285010Y-70285010D01*
X112750000Y-55250000D02*
X112750000Y-68750000D01*
X113500000Y-54500000D02*
X112750000Y-55250000D01*
X115000000Y-93500000D02*
X115000000Y-100000000D01*
X113500000Y-49000000D02*
X113500000Y-54500000D01*
X115320000Y-47180000D02*
X113500000Y-49000000D01*
X115380000Y-47180000D02*
X115320000Y-47180000D01*
%TO.N,/.36*%
X158380000Y-132880000D02*
X157630000Y-132880000D01*
X172250000Y-102090000D02*
X173880000Y-100460000D01*
X170874999Y-141625001D02*
X172250000Y-140250000D01*
X160250000Y-140250000D02*
X161625001Y-141625001D01*
X172250000Y-140250000D02*
X172250000Y-102090000D01*
X160250000Y-134500000D02*
X160250000Y-140250000D01*
X161625001Y-141625001D02*
X170874999Y-141625001D01*
X158630000Y-132880000D02*
X160250000Y-134500000D01*
X157630000Y-132880000D02*
X158630000Y-132880000D01*
%TO.N,Net-(D6-Pad9)*%
X181500000Y-82680000D02*
X180820000Y-82680000D01*
X178000000Y-85500000D02*
X178000000Y-101500000D01*
X180820000Y-82680000D02*
X178000000Y-85500000D01*
%TO.N,Net-(D6-Pad16)*%
X172250000Y-91210000D02*
X172250000Y-68750000D01*
X179000000Y-62000000D02*
X179000000Y-58750000D01*
X172250000Y-68750000D02*
X179000000Y-62000000D01*
X173880000Y-92840000D02*
X172250000Y-91210000D01*
%TO.N,/.37*%
X181500000Y-90300000D02*
X181200000Y-90300000D01*
X181200000Y-90300000D02*
X179000000Y-92500000D01*
X179000000Y-92500000D02*
X179000000Y-133000000D01*
%TO.N,Net-(D6-Pad5)*%
X181500000Y-92840000D02*
X181660000Y-92840000D01*
X181660000Y-92840000D02*
X184000000Y-90500000D01*
X184000000Y-67500000D02*
X181500000Y-65000000D01*
X184000000Y-90500000D02*
X184000000Y-67500000D01*
%TO.N,Net-(D15-Pad3)*%
X177250000Y-104500000D02*
X177250000Y-80250000D01*
X177500000Y-104750000D02*
X177250000Y-104500000D01*
X177500000Y-128000000D02*
X177500000Y-104750000D01*
%TO.N,Net-(D11-Pad3)*%
X139525010Y-53825010D02*
X139525010Y-67474990D01*
X138000000Y-52300000D02*
X139525010Y-53825010D01*
X139525010Y-67474990D02*
X138325009Y-68674991D01*
X138325009Y-68674991D02*
X138325009Y-126158269D01*
X138325009Y-126158269D02*
X138825011Y-126658270D01*
X138825011Y-126658270D02*
X138825011Y-138325011D01*
X138825011Y-138325011D02*
X141000000Y-140500000D01*
%TO.N,AB15*%
X136250000Y-53090000D02*
X138000000Y-54840000D01*
X139525010Y-45474990D02*
X136250000Y-48750000D01*
X136250000Y-48750000D02*
X136250000Y-53090000D01*
X139525010Y-32025010D02*
X139525010Y-45474990D01*
X137300000Y-29800000D02*
X139525010Y-32025010D01*
X137300000Y-26000000D02*
X137300000Y-29800000D01*
%TO.N,Net-(D11-Pad2)*%
X133000000Y-139000000D02*
X133000000Y-140500000D01*
X132000000Y-126500000D02*
X132000000Y-138000000D01*
X138000000Y-59920000D02*
X136500000Y-61420000D01*
X132000000Y-138000000D02*
X133000000Y-139000000D01*
X136500000Y-62951004D02*
X136500000Y-63914998D01*
X136500000Y-61968996D02*
X136474990Y-61994006D01*
X137025010Y-109025010D02*
X137025010Y-121474990D01*
X136474990Y-61994006D02*
X136474990Y-62925994D01*
X136474999Y-66060001D02*
X136500000Y-66085002D01*
X136500000Y-63914998D02*
X136474999Y-63939999D01*
X136500000Y-61420000D02*
X136500000Y-61968996D01*
X136474999Y-63939999D02*
X136474999Y-66060001D01*
X136500000Y-66085002D02*
X136500000Y-108500000D01*
X136500000Y-108500000D02*
X137025010Y-109025010D01*
X136474990Y-62925994D02*
X136500000Y-62951004D01*
X137025010Y-121474990D02*
X132000000Y-126500000D01*
%TO.N,Net-(D15-Pad6)*%
X151000000Y-127800000D02*
X151200000Y-127800000D01*
X152525010Y-126474990D02*
X152525010Y-119974990D01*
X151200000Y-127800000D02*
X152525010Y-126474990D01*
X155285010Y-117214990D02*
X155285010Y-104785010D01*
X152525010Y-119974990D02*
X155285010Y-117214990D01*
X155285010Y-104785010D02*
X154500000Y-104000000D01*
X152928996Y-104000000D02*
X152000000Y-103071004D01*
X154500000Y-104000000D02*
X152928996Y-104000000D01*
X152000000Y-103071004D02*
X152000000Y-79748996D01*
X152000000Y-79748996D02*
X152000000Y-79000000D01*
X152000000Y-79000000D02*
X156000000Y-75000000D01*
X156000000Y-75000000D02*
X156000000Y-67250000D01*
X157125001Y-66124999D02*
X157125001Y-46125001D01*
X156000000Y-67250000D02*
X157125001Y-66124999D01*
X157125001Y-46125001D02*
X153250000Y-42250000D01*
X130380000Y-52300000D02*
X130700000Y-52300000D01*
X130700000Y-52300000D02*
X133000000Y-50000000D01*
X133000000Y-47000000D02*
X135500000Y-44500000D01*
X133000000Y-50000000D02*
X133000000Y-47000000D01*
X162250000Y-137500000D02*
X162250000Y-129250000D01*
X165250000Y-140500000D02*
X162250000Y-137500000D01*
%TO.N,AB14*%
X138000000Y-33500000D02*
X138000000Y-44500000D01*
X138000000Y-44500000D02*
X138000000Y-45000000D01*
X135500000Y-47500000D02*
X135500000Y-62500000D01*
X138000000Y-45000000D02*
X135500000Y-47500000D01*
%TO.N,Net-(D10-Pad1)*%
X82000000Y-113000000D02*
X82000000Y-110460000D01*
X82000000Y-105380000D02*
X82000000Y-102840000D01*
X82000000Y-92500000D02*
X82000000Y-89960000D01*
X84540000Y-95040000D02*
X82000000Y-92500000D01*
X87500000Y-95040000D02*
X84540000Y-95040000D01*
X74380000Y-100300000D02*
X74380000Y-102840000D01*
X74380000Y-107920000D02*
X74380000Y-110460000D01*
X82000000Y-114000000D02*
X82000000Y-113000000D01*
X91750000Y-123750000D02*
X82000000Y-114000000D01*
X91750000Y-128500000D02*
X91750000Y-123750000D01*
X89910000Y-130340000D02*
X91750000Y-128500000D01*
X89630000Y-130340000D02*
X89910000Y-130340000D01*
X80250000Y-94250000D02*
X82000000Y-92500000D01*
X80250000Y-101000000D02*
X80250000Y-94250000D01*
X82000000Y-102750000D02*
X80250000Y-101000000D01*
X82000000Y-102840000D02*
X82000000Y-102750000D01*
X80250000Y-107130000D02*
X82000000Y-105380000D01*
X80250000Y-108750000D02*
X80250000Y-107130000D01*
X81960000Y-110460000D02*
X80250000Y-108750000D01*
X82000000Y-110460000D02*
X81960000Y-110460000D01*
%TO.N,/.28*%
X92260000Y-92680000D02*
X94000000Y-94420000D01*
X94000000Y-94420000D02*
X94000000Y-116500000D01*
X92750000Y-117750000D02*
X92750000Y-120000000D01*
X94000000Y-116500000D02*
X92750000Y-117750000D01*
X164000000Y-124000000D02*
X156000000Y-124000000D01*
X165260000Y-125260000D02*
X164000000Y-124000000D01*
%TO.N,/.29*%
X114285010Y-94205010D02*
X114285010Y-118714990D01*
X112760000Y-92680000D02*
X114285010Y-94205010D01*
X114285010Y-118714990D02*
X113000000Y-120000000D01*
%TO.N,/.30*%
X139500000Y-91000000D02*
X139500000Y-129000000D01*
X140500000Y-130000000D02*
X140500000Y-135500000D01*
X139500000Y-129000000D02*
X140500000Y-130000000D01*
%TO.N,/.31*%
X166120000Y-132880000D02*
X166000000Y-132880000D01*
X167000000Y-132000000D02*
X166120000Y-132880000D01*
X155600000Y-100600000D02*
X156000000Y-101000000D01*
X156000000Y-101000000D02*
X156000000Y-107500000D01*
X155600000Y-94520000D02*
X155600000Y-100600000D01*
X167000000Y-118500000D02*
X167000000Y-132000000D01*
X156000000Y-107500000D02*
X167000000Y-118500000D01*
X153760000Y-92680000D02*
X155600000Y-94520000D01*
%TO.N,Net-(D10-Pad10)*%
X74380000Y-89960000D02*
X74380000Y-87420000D01*
X74380000Y-82340000D02*
X74380000Y-79800000D01*
X82000000Y-84880000D02*
X82000000Y-82340000D01*
X82000000Y-84880000D02*
X82130000Y-84880000D01*
X83874999Y-88874999D02*
X87500000Y-92500000D01*
X83874999Y-86624999D02*
X83874999Y-88874999D01*
X82130000Y-84880000D02*
X83874999Y-86624999D01*
X72750000Y-83970000D02*
X74380000Y-82340000D01*
X74170000Y-87420000D02*
X72750000Y-86000000D01*
X72750000Y-86000000D02*
X72750000Y-83970000D01*
X74380000Y-87420000D02*
X74170000Y-87420000D01*
%TO.N,Net-(D11-Pad13)*%
X89880000Y-137960000D02*
X89630000Y-137960000D01*
X71000000Y-61750000D02*
X72830000Y-59920000D01*
X71000000Y-113750000D02*
X71000000Y-61750000D01*
X80000000Y-117500000D02*
X74750000Y-117500000D01*
X87750000Y-125250000D02*
X80000000Y-117500000D01*
X87750000Y-136080000D02*
X87750000Y-125250000D01*
X72830000Y-59920000D02*
X74380000Y-59920000D01*
X74750000Y-117500000D02*
X71000000Y-113750000D01*
X89630000Y-137960000D02*
X87750000Y-136080000D01*
%TO.N,AB13*%
X134800000Y-26000000D02*
X134800000Y-30300000D01*
X134800000Y-30300000D02*
X136500000Y-32000000D01*
X123000000Y-119000000D02*
X120500000Y-121500000D01*
X136500000Y-38500000D02*
X126875001Y-48124999D01*
X126875001Y-48124999D02*
X126875001Y-68624999D01*
X136500000Y-32000000D02*
X136500000Y-38500000D01*
X126875001Y-68624999D02*
X123000000Y-72500000D01*
X123000000Y-72500000D02*
X123000000Y-119000000D01*
X120500000Y-121500000D02*
X120500000Y-126500000D01*
%TO.N,~MAD*%
X89630000Y-135420000D02*
X95500000Y-129550000D01*
X91000000Y-75750000D02*
X91000000Y-39000000D01*
X95500000Y-129550000D02*
X95500000Y-122000000D01*
X95500000Y-122000000D02*
X96750000Y-120750000D01*
X96750000Y-120750000D02*
X96750000Y-103000000D01*
X95000000Y-79750000D02*
X91000000Y-75750000D01*
X95000000Y-101250000D02*
X95000000Y-79750000D01*
X91000000Y-39000000D02*
X96750000Y-33250000D01*
X96750000Y-103000000D02*
X95000000Y-101250000D01*
X96750000Y-33250000D02*
X99750000Y-33250000D01*
%TO.N,Net-(D12-Pad10)*%
X82000000Y-52300000D02*
X82000000Y-54840000D01*
%TO.N,/.27*%
X130500000Y-135500000D02*
X127880000Y-132880000D01*
%TO.N,Net-(D14-Pad2)*%
X135500000Y-137960000D02*
X135460000Y-137960000D01*
X133250000Y-135750000D02*
X133250000Y-127750000D01*
X135460000Y-137960000D02*
X133250000Y-135750000D01*
X143380000Y-130340000D02*
X143340000Y-130340000D01*
X140500000Y-127500000D02*
X140500000Y-126500000D01*
X143340000Y-130340000D02*
X140500000Y-127500000D01*
%TO.N,/.32*%
X129600000Y-114900000D02*
X127880000Y-116620000D01*
X129600000Y-101400000D02*
X129600000Y-114900000D01*
X133240000Y-97760000D02*
X129600000Y-101400000D01*
X127880000Y-116620000D02*
X127880000Y-125260000D01*
X133260000Y-97760000D02*
X133240000Y-97760000D01*
%TO.N,/.35*%
X90250000Y-112500000D02*
X90250000Y-117750000D01*
X92260000Y-110490000D02*
X90250000Y-112500000D01*
X92260000Y-110460000D02*
X92260000Y-110490000D01*
X133260000Y-110460000D02*
X133040000Y-110460000D01*
X130500000Y-113000000D02*
X130500000Y-117500000D01*
X133040000Y-110460000D02*
X130500000Y-113000000D01*
X111234990Y-117734990D02*
X111250000Y-117750000D01*
X111234990Y-111985010D02*
X111234990Y-117734990D01*
X112760000Y-110460000D02*
X111234990Y-111985010D01*
X153760000Y-110460000D02*
X153040000Y-110460000D01*
X152000000Y-111500000D02*
X152000000Y-117500000D01*
X153040000Y-110460000D02*
X152000000Y-111500000D01*
%TO.N,/.03*%
X166000000Y-60000000D02*
X166000000Y-63500000D01*
X166000000Y-63500000D02*
X161000000Y-68500000D01*
X161000000Y-82500000D02*
X160000000Y-83500000D01*
X161000000Y-68500000D02*
X161000000Y-82500000D01*
X89750000Y-91818205D02*
X89750000Y-97500000D01*
X89250000Y-91318205D02*
X89750000Y-91818205D01*
X89250000Y-83250000D02*
X89250000Y-91318205D01*
X90000000Y-82500000D02*
X89250000Y-83250000D01*
%TO.N,/.02*%
X158500000Y-62500000D02*
X158500000Y-66000000D01*
X157000000Y-67500000D02*
X157000000Y-86500000D01*
X158500000Y-66000000D02*
X157000000Y-67500000D01*
%TO.N,/.01*%
X161000000Y-60000000D02*
X161000000Y-65000000D01*
X158500000Y-67500000D02*
X158500000Y-89000000D01*
X161000000Y-65000000D02*
X158500000Y-67500000D01*
X90000000Y-91000000D02*
X90000000Y-88750000D01*
X90500000Y-98500000D02*
X90500000Y-91500000D01*
X89040000Y-99960000D02*
X90500000Y-98500000D01*
X90500000Y-91500000D02*
X90000000Y-91000000D01*
X87500000Y-99960000D02*
X89040000Y-99960000D01*
%TO.N,/.09*%
X99000000Y-74000000D02*
X99000000Y-90000000D01*
X96750000Y-71750000D02*
X99000000Y-74000000D01*
X96750000Y-56750000D02*
X96750000Y-71750000D01*
X95000000Y-55000000D02*
X96750000Y-56750000D01*
X95000000Y-54840000D02*
X95000000Y-55000000D01*
%TO.N,/.08*%
X173500000Y-62500000D02*
X165000000Y-71000000D01*
X165000000Y-71000000D02*
X164500000Y-71500000D01*
X164500000Y-89000000D02*
X163500000Y-90000000D01*
X164500000Y-71500000D02*
X164500000Y-89000000D01*
%TO.N,/.07*%
X176000000Y-60000000D02*
X176000000Y-61665002D01*
X176000000Y-61665002D02*
X176000000Y-62500000D01*
X176000000Y-62500000D02*
X168500000Y-70000000D01*
X168500000Y-70000000D02*
X168500000Y-76000000D01*
X171000000Y-78500000D02*
X171000000Y-86500000D01*
X168500000Y-76000000D02*
X171000000Y-78500000D01*
%TO.N,/.06*%
X168500000Y-62500000D02*
X162000000Y-69000000D01*
X162000000Y-69000000D02*
X162000000Y-85000000D01*
%TO.N,/.05*%
X171000000Y-60000000D02*
X171000000Y-61665002D01*
X171000000Y-61665002D02*
X171000000Y-62500000D01*
X171000000Y-62500000D02*
X163500000Y-70000000D01*
X163500000Y-70000000D02*
X163500000Y-82500000D01*
X156400000Y-98400000D02*
X157000000Y-99000000D01*
X156400000Y-92400000D02*
X156400000Y-98400000D01*
X155500000Y-91500000D02*
X156400000Y-92400000D01*
X155500000Y-84260000D02*
X155500000Y-91500000D01*
X153760000Y-82520000D02*
X155500000Y-84260000D01*
%TO.N,/.04*%
X163500000Y-62500000D02*
X163500000Y-64000000D01*
X159500000Y-68000000D02*
X159500000Y-80000000D01*
X163500000Y-64000000D02*
X159500000Y-68000000D01*
X153760000Y-79980000D02*
X153980000Y-79980000D01*
X153980000Y-79980000D02*
X156000000Y-82000000D01*
X156000000Y-82000000D02*
X156000000Y-90000000D01*
X157500000Y-91500000D02*
X157500000Y-96500000D01*
X156000000Y-90000000D02*
X157500000Y-91500000D01*
X90020000Y-79980000D02*
X92260000Y-79980000D01*
X86250000Y-83750000D02*
X90020000Y-79980000D01*
X89000000Y-92000000D02*
X86250000Y-89250000D01*
X89000000Y-95750000D02*
X89000000Y-92000000D01*
X86250000Y-89250000D02*
X86250000Y-83750000D01*
X87250000Y-97500000D02*
X89000000Y-95750000D01*
X85000000Y-97500000D02*
X87250000Y-97500000D01*
%TO.N,DB0*%
X147300000Y-30300000D02*
X147300000Y-26000000D01*
X149500000Y-32500000D02*
X147300000Y-30300000D01*
X149500000Y-34500000D02*
X149500000Y-32500000D01*
X161000000Y-46000000D02*
X149500000Y-34500000D01*
X161000000Y-49840000D02*
X161000000Y-46000000D01*
%TO.N,DB1*%
X158500000Y-52340000D02*
X158500000Y-45000000D01*
X148000000Y-34500000D02*
X148000000Y-33500000D01*
X158500000Y-45000000D02*
X148000000Y-34500000D01*
%TO.N,DB2*%
X149800000Y-26000000D02*
X149800000Y-29800000D01*
X149800000Y-29800000D02*
X152000000Y-32000000D01*
X152000000Y-32000000D02*
X152000000Y-34500000D01*
X166000000Y-48500000D02*
X166000000Y-49840000D01*
X152000000Y-34500000D02*
X166000000Y-48500000D01*
%TO.N,DB3*%
X163500000Y-52340000D02*
X163500000Y-47500000D01*
X150500000Y-34500000D02*
X150500000Y-33500000D01*
X163500000Y-47500000D02*
X150500000Y-34500000D01*
%TO.N,DB4*%
X169840000Y-49840000D02*
X171000000Y-49840000D01*
X154500000Y-34500000D02*
X169840000Y-49840000D01*
X154500000Y-32000000D02*
X154500000Y-34500000D01*
X152300000Y-29800000D02*
X154500000Y-32000000D01*
X152300000Y-26000000D02*
X152300000Y-29800000D01*
%TO.N,DB5*%
X168500000Y-52340000D02*
X168500000Y-50000000D01*
X153000000Y-34500000D02*
X153000000Y-33500000D01*
X168500000Y-50000000D02*
X153000000Y-34500000D01*
%TO.N,DB6*%
X154800000Y-26000000D02*
X154800000Y-29800000D01*
X154800000Y-29800000D02*
X157000000Y-32000000D01*
X157000000Y-32000000D02*
X157000000Y-34500000D01*
X157000000Y-34500000D02*
X168500000Y-46000000D01*
X172160000Y-46000000D02*
X176000000Y-49840000D01*
X168500000Y-46000000D02*
X172160000Y-46000000D01*
%TO.N,DB7*%
X173500000Y-52340000D02*
X173500000Y-50000000D01*
X173500000Y-50000000D02*
X171000000Y-47500000D01*
X171000000Y-47500000D02*
X168500000Y-47500000D01*
X155500000Y-34500000D02*
X155500000Y-33500000D01*
X168500000Y-47500000D02*
X155500000Y-34500000D01*
%TO.N,IE-Kette*%
X139800000Y-30300000D02*
X139800000Y-26000000D01*
X140500000Y-31000000D02*
X139800000Y-30300000D01*
%TD*%
M02*
