%TF.GenerationSoftware,KiCad,Pcbnew,(5.1.8-0-10_14)*%
%TF.CreationDate,2020-12-08T20:03:48+01:00*%
%TF.ProjectId,Blende,426c656e-6465-42e6-9b69-6361645f7063,rev?*%
%TF.SameCoordinates,Original*%
%TF.FileFunction,Legend,Top*%
%TF.FilePolarity,Positive*%
%FSLAX46Y46*%
G04 Gerber Fmt 4.6, Leading zero omitted, Abs format (unit mm)*
G04 Created by KiCad (PCBNEW (5.1.8-0-10_14)) date 2020-12-08 20:03:48*
%MOMM*%
%LPD*%
G01*
G04 APERTURE LIST*
%ADD10C,0.200000*%
%ADD11C,0.100000*%
%ADD12C,0.300000*%
G04 APERTURE END LIST*
D10*
X129934857Y-70365047D02*
X128849142Y-70365047D01*
X129392000Y-70365047D02*
X129392000Y-68665047D01*
X129211047Y-68907904D01*
X129030095Y-69069809D01*
X128849142Y-69150761D01*
X130658666Y-68826952D02*
X130749142Y-68746000D01*
X130930095Y-68665047D01*
X131382476Y-68665047D01*
X131563428Y-68746000D01*
X131653904Y-68826952D01*
X131744380Y-68988857D01*
X131744380Y-69150761D01*
X131653904Y-69393619D01*
X130568190Y-70365047D01*
X131744380Y-70365047D01*
X132830095Y-69393619D02*
X132649142Y-69312666D01*
X132558666Y-69231714D01*
X132468190Y-69069809D01*
X132468190Y-68988857D01*
X132558666Y-68826952D01*
X132649142Y-68746000D01*
X132830095Y-68665047D01*
X133192000Y-68665047D01*
X133372952Y-68746000D01*
X133463428Y-68826952D01*
X133553904Y-68988857D01*
X133553904Y-69069809D01*
X133463428Y-69231714D01*
X133372952Y-69312666D01*
X133192000Y-69393619D01*
X132830095Y-69393619D01*
X132649142Y-69474571D01*
X132558666Y-69555523D01*
X132468190Y-69717428D01*
X132468190Y-70041238D01*
X132558666Y-70203142D01*
X132649142Y-70284095D01*
X132830095Y-70365047D01*
X133192000Y-70365047D01*
X133372952Y-70284095D01*
X133463428Y-70203142D01*
X133553904Y-70041238D01*
X133553904Y-69717428D01*
X133463428Y-69555523D01*
X133372952Y-69474571D01*
X133192000Y-69393619D01*
X135815809Y-70365047D02*
X135815809Y-68665047D01*
X136901523Y-70365047D02*
X136087238Y-69393619D01*
X136901523Y-68665047D02*
X135815809Y-69636476D01*
X139072952Y-70284095D02*
X139344380Y-70365047D01*
X139796761Y-70365047D01*
X139977714Y-70284095D01*
X140068190Y-70203142D01*
X140158666Y-70041238D01*
X140158666Y-69879333D01*
X140068190Y-69717428D01*
X139977714Y-69636476D01*
X139796761Y-69555523D01*
X139434857Y-69474571D01*
X139253904Y-69393619D01*
X139163428Y-69312666D01*
X139072952Y-69150761D01*
X139072952Y-68988857D01*
X139163428Y-68826952D01*
X139253904Y-68746000D01*
X139434857Y-68665047D01*
X139887238Y-68665047D01*
X140158666Y-68746000D01*
X140972952Y-69474571D02*
X141606285Y-69474571D01*
X141877714Y-70365047D02*
X140972952Y-70365047D01*
X140972952Y-68665047D01*
X141877714Y-68665047D01*
X143687238Y-68746000D02*
X143506285Y-68665047D01*
X143234857Y-68665047D01*
X142963428Y-68746000D01*
X142782476Y-68907904D01*
X142692000Y-69069809D01*
X142601523Y-69393619D01*
X142601523Y-69636476D01*
X142692000Y-69960285D01*
X142782476Y-70122190D01*
X142963428Y-70284095D01*
X143234857Y-70365047D01*
X143415809Y-70365047D01*
X143687238Y-70284095D01*
X143777714Y-70203142D01*
X143777714Y-69636476D01*
X143415809Y-69636476D01*
X144592000Y-70365047D02*
X144592000Y-68665047D01*
X145225333Y-69879333D01*
X145858666Y-68665047D01*
X145858666Y-70365047D01*
X146763428Y-69474571D02*
X147396761Y-69474571D01*
X147668190Y-70365047D02*
X146763428Y-70365047D01*
X146763428Y-68665047D01*
X147668190Y-68665047D01*
X148482476Y-70365047D02*
X148482476Y-68665047D01*
X149568190Y-70365047D01*
X149568190Y-68665047D01*
X150201523Y-68665047D02*
X151287238Y-68665047D01*
X150744380Y-70365047D02*
X150744380Y-68665047D01*
X151920571Y-69474571D02*
X152553904Y-69474571D01*
X152825333Y-70365047D02*
X151920571Y-70365047D01*
X151920571Y-68665047D01*
X152825333Y-68665047D01*
X153639619Y-70365047D02*
X153639619Y-68665047D01*
X154092000Y-68665047D01*
X154363428Y-68746000D01*
X154544380Y-68907904D01*
X154634857Y-69069809D01*
X154725333Y-69393619D01*
X154725333Y-69636476D01*
X154634857Y-69960285D01*
X154544380Y-70122190D01*
X154363428Y-70284095D01*
X154092000Y-70365047D01*
X153639619Y-70365047D01*
X158072952Y-70365047D02*
X157439619Y-69555523D01*
X156987238Y-70365047D02*
X156987238Y-68665047D01*
X157711047Y-68665047D01*
X157892000Y-68746000D01*
X157982476Y-68826952D01*
X158072952Y-68988857D01*
X158072952Y-69231714D01*
X157982476Y-69393619D01*
X157892000Y-69474571D01*
X157711047Y-69555523D01*
X156987238Y-69555523D01*
X159249142Y-68665047D02*
X159611047Y-68665047D01*
X159792000Y-68746000D01*
X159972952Y-68907904D01*
X160063428Y-69231714D01*
X160063428Y-69798380D01*
X159972952Y-70122190D01*
X159792000Y-70284095D01*
X159611047Y-70365047D01*
X159249142Y-70365047D01*
X159068190Y-70284095D01*
X158887238Y-70122190D01*
X158796761Y-69798380D01*
X158796761Y-69231714D01*
X158887238Y-68907904D01*
X159068190Y-68746000D01*
X159249142Y-68665047D01*
X160877714Y-70365047D02*
X160877714Y-68665047D01*
X161511047Y-69879333D01*
X162144380Y-68665047D01*
X162144380Y-70365047D01*
D11*
G36*
X162306000Y-55880000D02*
G01*
X160274000Y-55880000D01*
X161544000Y-53340000D01*
X162306000Y-53340000D01*
X162306000Y-55880000D01*
G37*
X162306000Y-55880000D02*
X160274000Y-55880000D01*
X161544000Y-53340000D01*
X162306000Y-53340000D01*
X162306000Y-55880000D01*
G36*
X159766000Y-55880000D02*
G01*
X159766000Y-53340000D01*
X161036000Y-53340000D01*
X159766000Y-55880000D01*
G37*
X159766000Y-55880000D02*
X159766000Y-53340000D01*
X161036000Y-53340000D01*
X159766000Y-55880000D01*
G36*
X159258000Y-55880000D02*
G01*
X158242000Y-55880000D01*
X159258000Y-53340000D01*
X159258000Y-55880000D01*
G37*
X159258000Y-55880000D02*
X158242000Y-55880000D01*
X159258000Y-53340000D01*
X159258000Y-55880000D01*
D12*
X65818000Y-68500761D02*
X66008476Y-68500761D01*
X66198952Y-68596000D01*
X66294190Y-68691238D01*
X66389428Y-68881714D01*
X66484666Y-69262666D01*
X66484666Y-69738857D01*
X66389428Y-70119809D01*
X66294190Y-70310285D01*
X66198952Y-70405523D01*
X66008476Y-70500761D01*
X65818000Y-70500761D01*
X65627523Y-70405523D01*
X65532285Y-70310285D01*
X65437047Y-70119809D01*
X65341809Y-69738857D01*
X65341809Y-69262666D01*
X65437047Y-68881714D01*
X65532285Y-68691238D01*
X65627523Y-68596000D01*
X65818000Y-68500761D01*
X68198952Y-69167428D02*
X68198952Y-70500761D01*
X67722761Y-68405523D02*
X67246571Y-69834095D01*
X68484666Y-69834095D01*
X69056095Y-68500761D02*
X70389428Y-68500761D01*
X69532285Y-70500761D01*
D10*
X63703714Y-66882095D02*
X63703714Y-65582095D01*
X64303714Y-66510666D01*
X64903714Y-65582095D01*
X64903714Y-66882095D01*
X66103714Y-65582095D02*
X66446571Y-65582095D01*
X66618000Y-65644000D01*
X66789428Y-65767809D01*
X66875142Y-66015428D01*
X66875142Y-66448761D01*
X66789428Y-66696380D01*
X66618000Y-66820190D01*
X66446571Y-66882095D01*
X66103714Y-66882095D01*
X65932285Y-66820190D01*
X65760857Y-66696380D01*
X65675142Y-66448761D01*
X65675142Y-66015428D01*
X65760857Y-65767809D01*
X65932285Y-65644000D01*
X66103714Y-65582095D01*
X67646571Y-66882095D02*
X67646571Y-65582095D01*
X68075142Y-65582095D01*
X68332285Y-65644000D01*
X68503714Y-65767809D01*
X68589428Y-65891619D01*
X68675142Y-66139238D01*
X68675142Y-66324952D01*
X68589428Y-66572571D01*
X68503714Y-66696380D01*
X68332285Y-66820190D01*
X68075142Y-66882095D01*
X67646571Y-66882095D01*
X69446571Y-65582095D02*
X69446571Y-66634476D01*
X69532285Y-66758285D01*
X69618000Y-66820190D01*
X69789428Y-66882095D01*
X70132285Y-66882095D01*
X70303714Y-66820190D01*
X70389428Y-66758285D01*
X70475142Y-66634476D01*
X70475142Y-65582095D01*
X72189428Y-66882095D02*
X71332285Y-66882095D01*
X71332285Y-65582095D01*
M02*
